<svg width="96" height="96" viewBox="0 0 96 96" fill="none" xmlns="http://www.w3.org/2000/svg">
<path d="M84.149 48.6013C84.1584 48.5138 84.194 48.4453 84.2557 48.3956C84.3175 48.346 84.3921 48.3259 84.4795 48.3354L92.2341 49.1757C92.3216 49.1852 92.3902 49.2208 92.4398 49.2825C92.4895 49.3442 92.5096 49.4188 92.5001 49.5063L91.7826 56.1275C91.7731 56.215 91.7375 56.2836 91.6758 56.3332C91.6141 56.3828 91.5395 56.4029 91.452 56.3934L83.6974 55.5531C83.6099 55.5437 83.5414 55.5081 83.4917 55.4464C83.4421 55.3847 83.422 55.3101 83.4315 55.2226L83.5982 53.6836C83.6077 53.5961 83.6433 53.5275 83.705 53.4779C83.7667 53.4282 83.8413 53.4082 83.9288 53.4176L90.0729 54.0834L90.3922 51.1367L84.2481 50.4709C84.1606 50.4614 84.0921 50.4258 84.0424 50.3641C83.9928 50.3024 83.9727 50.2278 83.9822 50.1403L84.149 48.6013Z" fill="white"/>
<path d="M81.9495 59.6462C82.1924 58.9514 82.517 58.3869 82.9231 57.9526C83.3292 57.5183 83.809 57.237 84.3625 57.1085C84.9235 56.9826 85.5528 57.0247 86.2506 57.2348C86.578 57.3408 86.904 57.4506 87.2287 57.5642C87.5534 57.6777 87.8806 57.7964 88.2102 57.9201C88.8793 58.188 89.394 58.546 89.7543 58.994C90.1195 59.4523 90.3293 59.9791 90.3838 60.5745C90.4384 61.1698 90.3455 61.8111 90.1051 62.4983C89.8675 63.178 89.5418 63.7336 89.1281 64.1652C88.7118 64.6044 88.218 64.8894 87.6468 65.0202C87.0832 65.1536 86.4576 65.1128 85.77 64.8978C85.4325 64.7967 85.1014 64.6893 84.7766 64.5758C84.4519 64.4622 84.1299 64.3411 83.8104 64.2124C83.1338 63.9419 82.6153 63.5826 82.255 63.1346C81.9023 62.6892 81.7025 62.1701 81.6555 61.5774C81.6085 60.9846 81.7065 60.3409 81.9495 59.6462ZM83.5806 60.2166C83.4406 60.6168 83.4479 60.9838 83.6024 61.3175C83.7543 61.6588 84.0919 61.9294 84.6152 62.1293C84.9422 62.2606 85.2529 62.3778 85.5474 62.4808C85.8419 62.5838 86.1504 62.6832 86.4729 62.779C86.8331 62.888 87.1438 62.9204 87.405 62.8762C87.6712 62.8421 87.8928 62.7416 88.0698 62.5747C88.2469 62.4078 88.3816 62.1922 88.474 61.9279C88.5638 61.6711 88.5915 61.4223 88.5571 61.1815C88.5227 60.9406 88.4133 60.7201 88.229 60.5201C88.0523 60.3227 87.7891 60.1544 87.4394 60.0151C87.1249 59.8967 86.8204 59.7859 86.5259 59.6829C86.2314 59.5799 85.9167 59.4741 85.5818 59.3655C85.0452 59.2033 84.6126 59.2045 84.2838 59.3692C83.955 59.5339 83.7206 59.8164 83.5806 60.2166Z" fill="white"/>
<path d="M77.4361 68.7851C77.4838 68.7112 77.5464 68.6659 77.6239 68.6493C77.7013 68.6327 77.777 68.6483 77.8509 68.6961L83.0404 72.0518L84.2524 70.1775L83.3354 69.5845C82.5226 69.0589 81.8567 68.5712 81.3378 68.1213C80.8213 67.6825 80.4468 67.2451 80.2143 66.809C79.9843 66.3839 79.9025 65.9357 79.9692 65.4644C80.0314 64.9997 80.2383 64.4809 80.5898 63.9079C80.6332 63.8407 80.6958 63.7955 80.7776 63.7721C80.8661 63.7531 80.9473 63.7675 81.0212 63.8153L82.0792 64.4995C82.227 64.595 82.2567 64.7333 82.1683 64.9143C82.0802 65.1241 82.0756 65.345 82.1542 65.5769C82.2329 65.8088 82.3806 66.0519 82.5972 66.3063C82.8205 66.565 83.1094 66.8328 83.4639 67.1096C83.8251 67.3908 84.2374 67.6813 84.701 67.981L86.7466 69.3038C86.8204 69.3515 86.8657 69.4141 86.8823 69.4916C86.8946 69.5757 86.8768 69.6548 86.8291 69.7286L83.6493 74.6461C83.6015 74.72 83.5389 74.7653 83.4615 74.7819C83.384 74.7985 83.3084 74.783 83.2345 74.7352L76.6845 70.4998C76.6106 70.452 76.5654 70.3894 76.5487 70.312C76.5321 70.2346 76.5477 70.1589 76.5955 70.085L77.4361 68.7851Z" fill="white"/>
<path d="M74.8211 72.1228C74.884 72.0613 74.9551 72.0309 75.0342 72.0318C75.1134 72.0326 75.1838 72.0645 75.2453 72.1274L76.1349 73.0366C76.1965 73.0995 76.2268 73.1706 76.2259 73.2497C76.2251 73.3289 76.1932 73.3993 76.1303 73.4608L75.8044 73.7798C75.65 73.9308 75.5464 74.0881 75.4937 74.2516C75.4466 74.4208 75.4389 74.6074 75.4707 74.8114C75.4967 75.021 75.5647 75.2678 75.6747 75.5519L77.6461 80.7582C77.6848 80.8435 77.6952 80.9228 77.6774 80.9961C77.6597 81.0695 77.6222 81.1341 77.565 81.1901L76.4414 82.2895C76.3899 82.3398 76.3275 82.3618 76.254 82.3553C76.1861 82.3546 76.1298 82.3313 76.085 82.2856C76.0626 82.2627 76.0403 82.2342 76.0181 82.2C75.9958 82.1658 75.9792 82.1317 75.9683 82.0976L73.8399 76.5077C73.6639 76.0419 73.5355 75.6304 73.4545 75.2731C73.3678 74.9214 73.3374 74.5986 73.3632 74.3047C73.3891 74.0108 73.4827 73.7233 73.6442 73.4422C73.8055 73.1724 74.0463 72.8809 74.3665 72.5676L74.8211 72.1228ZM75.1223 74.85L81.482 76.8371C81.5158 76.8488 81.5467 76.8689 81.5747 76.8975C81.6194 76.9433 81.6414 77.0057 81.6405 77.0849C81.6396 77.1641 81.6106 77.2317 81.5534 77.2876L80.3698 78.4458C80.3069 78.5073 80.2415 78.5377 80.1736 78.537C80.1056 78.5476 80.0293 78.5382 79.9448 78.509L75.8019 77.1231L75.1223 74.85Z" fill="white"/>
<path d="M66.1268 79.1358C66.2012 79.0888 66.277 79.0741 66.3543 79.0916C66.4315 79.109 66.4936 79.155 66.5406 79.2294L67.9176 81.4112C67.9703 81.2549 68.0587 81.0951 68.1826 80.9318C68.3065 80.7684 68.4547 80.6134 68.627 80.4668C68.7926 80.3244 68.9701 80.1935 69.1596 80.0739C70.0187 79.5317 70.7904 79.3379 71.4746 79.4926C72.163 79.6541 72.7827 80.1712 73.3335 81.044L74.7425 83.2765C74.7894 83.3509 74.8042 83.4268 74.7867 83.504C74.7625 83.5855 74.7165 83.6476 74.6489 83.6903L73.3297 84.5229C73.2552 84.5699 73.1794 84.5846 73.1022 84.5672C73.0249 84.5497 72.9628 84.5038 72.9158 84.4293L71.5581 82.278C71.3446 81.9397 71.102 81.7428 70.8304 81.6871C70.5631 81.6383 70.2332 81.7377 69.8408 81.9853C69.7326 82.0536 69.6206 82.1385 69.5049 82.2399C69.3891 82.3414 69.2887 82.452 69.2036 82.572C69.1185 82.6919 69.0643 82.816 69.0411 82.9441C69.018 83.0723 69.0427 83.1938 69.1152 83.3089L70.7036 85.8256C70.7506 85.9 70.7653 85.9758 70.7478 86.053C70.7304 86.1303 70.6844 86.1924 70.61 86.2394L69.3009 87.0656C69.2265 87.1125 69.1507 87.1273 69.0734 87.1098C68.9962 87.0923 68.9341 87.0464 68.8871 86.972L64.7241 80.3758C64.6771 80.3014 64.6624 80.2256 64.6799 80.1483C64.6973 80.0711 64.7433 80.009 64.8177 79.962L66.1268 79.1358Z" fill="white"/>
<path d="M63.0229 80.9527C63.1064 80.9249 63.1836 80.9287 63.2544 80.9641C63.3277 81.0072 63.377 81.0667 63.4023 81.1426L65.866 88.5433C65.8938 88.6268 65.89 88.7039 65.8545 88.7747C65.8115 88.8481 65.752 88.8974 65.6761 88.9227L64.2073 89.4116C64.1239 89.4394 64.0467 89.4356 63.9759 89.4001C63.9051 89.3647 63.8557 89.3052 63.8279 89.2217L62.3005 84.6333L60.6058 90.3703C60.588 90.4436 60.5551 90.5094 60.507 90.5675C60.4615 90.6333 60.3893 90.6826 60.2907 90.7154L58.9699 91.1551C58.894 91.1804 58.8207 91.1753 58.7498 91.1399C58.6714 91.1069 58.6183 91.0487 58.5905 90.9652L56.1269 83.5645C56.0991 83.481 56.1067 83.4026 56.1497 83.3293C56.1852 83.2585 56.2408 83.2104 56.3167 83.1851L57.7855 82.6962C57.869 82.6684 57.9499 82.671 58.0284 82.7039C58.0992 82.7393 58.1485 82.7988 58.1763 82.8823L59.6469 87.2999L61.3871 81.7375C61.4073 81.6718 61.4403 81.606 61.4858 81.5403C61.5238 81.477 61.5959 81.4277 61.7022 81.3923L63.0229 80.9527Z" fill="white"/>
<path d="M52.4575 83.7396C52.5451 83.7311 52.6194 83.7521 52.6806 83.8024C52.7417 83.8528 52.7765 83.9217 52.785 84.0093L53.3833 90.1965L55.5093 89.9909C55.5969 89.9824 55.6713 90.0034 55.7324 90.0537C55.7943 90.112 55.8291 90.181 55.8368 90.2606L55.9604 91.5387C55.9689 91.6263 55.9479 91.7006 55.8976 91.7617C55.8472 91.8229 55.7783 91.8577 55.6907 91.8661L49.2646 92.4875C49.1771 92.496 49.1027 92.4751 49.0416 92.4247C48.9804 92.3744 48.9456 92.3054 48.9372 92.2178L48.8136 90.9398C48.8059 90.8601 48.8268 90.7858 48.8764 90.7167C48.9267 90.6555 48.9957 90.6207 49.0833 90.6123L51.2094 90.4067L50.6111 84.2195C50.6026 84.132 50.6236 84.0576 50.6739 83.9965C50.7243 83.9353 50.7932 83.9005 50.8808 83.8921L52.4575 83.7396Z" fill="white"/>
<path d="M46.9518 84.0894C47.0393 84.0986 47.108 84.1339 47.1579 84.1954C47.2077 84.2569 47.2281 84.3315 47.219 84.419L46.4085 92.1768C46.3994 92.2643 46.364 92.333 46.3025 92.3829C46.241 92.4327 46.1665 92.4531 46.079 92.444L44.5393 92.2831C44.4518 92.274 44.3831 92.2386 44.3332 92.1771C44.2834 92.1156 44.263 92.0411 44.2721 91.9536L44.5402 89.3875L43.2751 89.2554C42.2566 89.149 41.4886 88.8395 40.9711 88.3269C40.4527 87.8223 40.2409 87.1165 40.3357 86.2095C40.393 85.6604 40.5671 85.188 40.8578 84.792C41.1485 84.3961 41.5486 84.1081 42.058 83.9281C42.5595 83.7472 43.1564 83.6929 43.8487 83.7652L46.9518 84.0894ZM44.9405 85.5564L43.7231 85.4292C43.3809 85.3935 43.1115 85.4699 42.9149 85.6585C42.7094 85.8542 42.5897 86.1151 42.5556 86.4414C42.5182 86.7994 42.5818 87.0755 42.7466 87.2697C42.9113 87.4639 43.1607 87.5784 43.4949 87.6133L44.7123 87.7405L44.9405 85.5564Z" fill="white"/>
<path d="M37.2339 82.5177C37.3152 82.5513 37.371 82.6047 37.4013 82.6779C37.4316 82.7511 37.4299 82.8283 37.3963 82.9096L34.4115 90.116C34.3778 90.1973 34.3244 90.2531 34.2512 90.2834C34.1781 90.3137 34.1008 90.312 34.0195 90.2783L30.6381 88.8778C30.0025 88.6145 29.5181 88.31 29.1851 87.9643C28.8521 87.6185 28.6583 87.2395 28.6039 86.8273C28.5391 86.4195 28.6 85.9901 28.7867 85.5392C28.8969 85.2732 29.0466 85.0581 29.2358 84.894C29.4146 84.7342 29.6054 84.6184 29.8083 84.5466C30.0039 84.4717 30.1767 84.4308 30.3268 84.4237C30.1011 84.1743 29.9438 83.8537 29.8549 83.4619C29.7587 83.067 29.7948 82.6663 29.9632 82.2598C30.1652 81.772 30.4506 81.3966 30.8192 81.1337C31.1775 80.8751 31.607 80.737 32.1079 80.7193C32.5983 80.7059 33.1466 80.8248 33.7527 81.0758L37.2339 82.5177ZM34.9296 83.2518L33.3775 82.6089C33.0596 82.4773 32.7812 82.4702 32.542 82.5876C32.3029 82.705 32.1343 82.882 32.0364 83.1185C31.9292 83.3772 31.9239 83.6304 32.0204 83.8782C32.1096 84.123 32.3094 84.3096 32.6198 84.4382L34.1719 85.0811L34.9296 83.2518ZM33.5887 86.4891L32.1364 85.8875C31.8334 85.762 31.5758 85.7463 31.3637 85.8402C31.1442 85.9312 30.9839 86.0986 30.8829 86.3425C30.7849 86.579 30.7829 86.8033 30.8769 87.0154C30.9605 87.2319 31.1538 87.4028 31.4568 87.5284L32.9091 88.1299L33.5887 86.4891Z" fill="white"/>
<path d="M27.3386 77.338C27.9385 77.7645 28.3906 78.233 28.695 78.7438C28.9994 79.2546 29.1364 79.7937 29.1061 80.361C29.0712 80.9349 28.8558 81.5278 28.4602 82.1397C28.2674 82.4248 28.0713 82.7075 27.872 82.9879C27.6727 83.2682 27.4679 83.5496 27.2574 83.8318C26.8142 84.4002 26.3273 84.7951 25.7968 85.0168C25.2552 85.2403 24.6908 85.2955 24.1037 85.1825C23.5166 85.0695 22.9264 84.8021 22.333 84.3803C21.7462 83.9632 21.3029 83.496 21.0032 82.9787C20.6969 82.4567 20.5603 81.9032 20.5934 81.3182C20.6218 80.7397 20.8348 80.1501 21.2324 79.5493C21.4233 79.2531 21.6183 78.9648 21.8176 78.6844C22.0169 78.4041 22.2228 78.1283 22.4351 77.8572C22.8829 77.2823 23.3721 76.8841 23.9026 76.6625C24.4285 76.4474 24.9827 76.3996 25.5651 76.5191C26.1476 76.6387 26.7387 76.9116 27.3386 77.338ZM26.3375 78.7465C25.9919 78.5009 25.6374 78.4059 25.2739 78.4616C24.9039 78.5127 24.5501 78.7618 24.2126 79.209C23.9957 79.4866 23.7968 79.7526 23.616 80.0069C23.4353 80.2612 23.2541 80.5299 23.0725 80.8131C22.8677 81.1288 22.7502 81.4183 22.7202 81.6815C22.6789 81.9467 22.7139 82.1875 22.8251 82.4039C22.9362 82.6203 23.1059 82.8097 23.3342 82.9719C23.5559 83.1295 23.7872 83.2252 24.0281 83.259C24.2691 83.2929 24.5112 83.2491 24.7546 83.1276C24.9933 83.0127 25.2281 82.8066 25.459 82.5094C25.6602 82.2402 25.8512 81.9784 26.0319 81.7241C26.2127 81.4698 26.4018 81.1969 26.5992 80.9053C26.9041 80.435 27.0231 80.019 26.9562 79.6574C26.8893 79.2958 26.6831 78.9921 26.3375 78.7465Z" fill="white"/>
<path d="M24.911 73.7472C24.9635 73.8075 24.9897 73.8802 24.9894 73.9653C24.984 74.0443 24.9481 74.1127 24.8817 74.1705L22.6191 76.1403C22.5587 76.1929 22.489 76.2164 22.41 76.2109C22.3197 76.2047 22.2483 76.1714 22.1958 76.1111L22.054 75.9482C21.9226 75.7973 21.7456 75.734 21.5227 75.7583C21.2999 75.7826 21.0386 75.8723 20.7386 76.0273C20.4327 76.1876 20.0973 76.4054 19.7323 76.6807C19.3614 76.9612 18.9707 77.2801 18.5604 77.6373L16.7232 79.2368C16.6568 79.2946 16.5841 79.3208 16.5051 79.3153C16.4209 79.3038 16.3525 79.2679 16.2999 79.2076L12.5965 74.9538C12.5387 74.8874 12.5126 74.8148 12.518 74.7357C12.5235 74.6567 12.5594 74.5883 12.6258 74.5306L17.2868 70.4726L16.9165 70.0472C16.8587 69.9808 16.8356 69.9055 16.8471 69.8213C16.8473 69.7362 16.8776 69.6674 16.9379 69.6149L19.2005 67.645C19.2609 67.5925 19.3332 67.572 19.4174 67.5835C19.5025 67.5837 19.5739 67.617 19.6317 67.6833L20.6481 68.8509C20.7059 68.9172 20.729 68.9925 20.7175 69.0768C20.7121 69.1558 20.6792 69.2216 20.6188 69.2741L19.578 70.1803L22.4226 73.4475L23.4634 72.5414C23.5237 72.4888 23.5934 72.4653 23.6724 72.4708C23.7574 72.471 23.8288 72.5043 23.8866 72.5706L24.911 73.7472ZM20.3756 74.0204L18.6973 72.0926L15.2581 75.0869L16.574 76.5983L17.3976 75.8813C18.0371 75.3244 18.6026 74.8958 19.0941 74.5952C19.5795 74.2999 20.0066 74.1083 20.3756 74.0204Z" fill="white"/>
<path d="M17.546 67.5798C17.5856 67.6584 17.593 67.7353 17.5682 67.8105C17.5363 67.8894 17.4846 67.9468 17.4132 67.9828L10.4488 71.4952C10.3702 71.5348 10.2933 71.5422 10.2181 71.5175C10.1393 71.4855 10.0819 71.4338 10.0458 71.3624L9.34875 69.9802C9.30913 69.9017 9.30171 69.8248 9.32649 69.7496C9.35127 69.6743 9.40295 69.6169 9.48153 69.5773L13.7995 67.3996L7.87719 66.5561C7.80204 66.5492 7.73219 66.5262 7.66766 66.487C7.59598 66.4515 7.53672 66.3873 7.48989 66.2945L6.86307 65.0516C6.82704 64.9801 6.82142 64.9068 6.84621 64.8316C6.86739 64.7492 6.91727 64.6883 6.99584 64.6486L13.9603 61.1362C14.0388 61.0966 14.1175 61.0928 14.1964 61.1247C14.2716 61.1495 14.3272 61.1976 14.3632 61.269L15.0603 62.6512C15.0999 62.7298 15.1091 62.8102 15.088 62.8926C15.0632 62.9678 15.0115 63.0252 14.9329 63.0649L10.7757 65.1615L16.5318 66.0753C16.5999 66.0858 16.6697 66.1089 16.7414 66.1444C16.8095 66.1728 16.8687 66.237 16.9191 66.337L17.546 67.5798Z" fill="white"/>
<path d="M13.2507 57.4987C13.2715 57.5842 13.2612 57.6608 13.22 57.7284C13.1788 57.7961 13.1154 57.8403 13.0299 57.861L6.9892 59.3268L7.49288 61.4025C7.51363 61.4881 7.50339 61.5646 7.46218 61.6323C7.41319 61.7018 7.34982 61.746 7.27208 61.7648L6.02429 62.0676C5.93877 62.0883 5.86219 62.0781 5.79457 62.0369C5.72694 61.9957 5.68275 61.9323 5.662 61.8468L4.13965 55.5729C4.11889 55.4873 4.12913 55.4108 4.17034 55.3431C4.21156 55.2755 4.27493 55.2313 4.36044 55.2106L5.60824 54.9078C5.68598 54.8889 5.76255 54.8992 5.83795 54.9385C5.90558 54.9797 5.94977 55.0431 5.97052 55.1286L6.4742 57.2044L12.5149 55.7386C12.6004 55.7178 12.677 55.7281 12.7446 55.7693C12.8123 55.8105 12.8564 55.8739 12.8772 55.9594L13.2507 57.4987Z" fill="white"/>
<path d="M12.1376 52.2724C12.141 52.3603 12.1158 52.4333 12.062 52.4914C12.0082 52.5496 11.9373 52.5803 11.8494 52.5837L4.05519 52.8847C3.96725 52.8881 3.89423 52.8629 3.83611 52.8091C3.77799 52.7553 3.74723 52.6844 3.74384 52.5965L3.52761 46.9966C3.52422 46.9087 3.54942 46.8357 3.60322 46.7776C3.65701 46.7194 3.72788 46.6887 3.81582 46.6853L4.94298 46.6418C5.03091 46.6384 5.10394 46.6636 5.16206 46.7174C5.22017 46.7712 5.25093 46.842 5.25433 46.93L5.40203 50.7551L7.02082 50.6926L6.88331 47.1313C6.87991 47.0433 6.90911 46.9702 6.9709 46.9117C7.0247 46.8536 7.09557 46.8228 7.1835 46.8195L8.22672 46.7792C8.30666 46.7761 8.37969 46.8013 8.4458 46.8548C8.50392 46.9086 8.53468 46.9794 8.53807 47.0674L8.67559 50.6287L10.3423 50.5644L10.1909 46.6433C10.1875 46.5553 10.2127 46.4823 10.2665 46.4242C10.3203 46.3661 10.3912 46.3353 10.4791 46.3319L11.6063 46.2884C11.6942 46.285 11.7673 46.3102 11.8254 46.364C11.8835 46.4178 11.9143 46.4887 11.9177 46.5766L12.1376 52.2724Z" fill="white"/>
<path d="M12.9119 39.7773C12.8954 39.8637 12.8544 39.9292 12.7889 39.9737C12.7234 40.0182 12.6474 40.0323 12.561 40.0158L6.49044 38.8579L6.07225 41.0504L7.14492 41.255C8.09578 41.4363 8.89619 41.6379 9.54616 41.8596C10.1898 42.0719 10.7013 42.3364 11.0807 42.6531C11.4537 42.9604 11.698 43.345 11.8135 43.8068C11.9305 44.2608 11.9339 44.8193 11.8237 45.4824C11.8087 45.561 11.7677 45.6265 11.7007 45.6789C11.6259 45.7297 11.5452 45.7469 11.4588 45.7305L10.2211 45.4944C10.0482 45.4614 9.96872 45.3444 9.98262 45.1435C9.98529 44.916 9.90657 44.7096 9.74645 44.5243C9.58633 44.339 9.35809 44.1692 9.06175 44.015C8.75754 43.8592 8.38915 43.7197 7.95658 43.5965C7.51615 43.4718 7.02482 43.3577 6.4826 43.2543L4.08974 42.7979C4.00329 42.7814 3.93782 42.7404 3.8933 42.6749C3.85028 42.6015 3.83702 42.5216 3.8535 42.4352L4.95068 36.6829C4.96717 36.5964 5.00816 36.531 5.07366 36.4864C5.13916 36.4419 5.21513 36.4279 5.30158 36.4444L12.9634 37.9058C13.0499 37.9223 13.1154 37.9633 13.1599 38.0288C13.2044 38.0943 13.2184 38.1703 13.2019 38.2567L12.9119 39.7773Z" fill="white"/>
<path d="M13.8775 36.1339C13.8421 36.2145 13.7874 36.2691 13.7136 36.2977C13.6397 36.3264 13.5626 36.323 13.482 36.2875L6.34436 33.1421C6.26383 33.1066 6.20923 33.052 6.18057 32.9781C6.15191 32.9043 6.15532 32.8271 6.19081 32.7466L6.81504 31.3301C6.85053 31.2495 6.90519 31.1949 6.97901 31.1663C7.05284 31.1376 7.13002 31.141 7.21055 31.1765L9.57147 32.2169L10.0844 31.0529C10.4973 30.1159 11.027 29.4794 11.6733 29.1435C12.3123 28.8044 13.0491 28.8187 13.8837 29.1865C14.3888 29.4091 14.7853 29.7193 15.0733 30.1173C15.3613 30.5152 15.5131 30.9842 15.5286 31.5243C15.5473 32.0571 15.4164 32.642 15.1357 33.2789L13.8775 36.1339ZM13.0964 33.7702L13.59 32.6502C13.7287 32.3354 13.7384 32.0555 13.619 31.8106C13.4955 31.5551 13.2837 31.3612 12.9836 31.229C12.6542 31.0838 12.3718 31.0599 12.1366 31.1573C11.9013 31.2547 11.7159 31.4571 11.5804 31.7646L11.0869 32.8847L13.0964 33.7702Z" fill="white"/>
<path d="M18.8335 27.0965C18.3864 27.7111 17.9026 28.1654 17.3821 28.4594C16.8662 28.747 16.3248 28.8725 15.7578 28.836C15.1955 28.793 14.617 28.575 14.0224 28.1821C13.7525 27.9956 13.4655 27.7918 13.1614 27.5706C12.8574 27.3494 12.5686 27.1344 12.2951 26.9256C11.7511 26.4903 11.3744 26.0085 11.1651 25.4803C10.9493 24.9474 10.9011 24.3881 11.0205 23.8023C11.1335 23.2118 11.4089 22.6157 11.8465 22.014C12.1571 21.587 12.4992 21.2324 12.8727 20.9501C13.2397 20.6631 13.6256 20.4591 14.0303 20.3379C14.4285 20.2121 14.8272 20.1807 15.2266 20.2437C15.6242 20.2955 16.0065 20.4499 16.3735 20.707C16.4364 20.7428 16.4708 20.7975 16.4767 20.8711C16.4873 20.9381 16.4714 21.0008 16.429 21.059L15.4761 22.369C15.4149 22.4531 15.3517 22.5061 15.2864 22.5278C15.2146 22.5449 15.1185 22.5343 14.9979 22.496C14.5891 22.3372 14.248 22.3166 13.9745 22.4342C13.6992 22.5406 13.4533 22.7426 13.2368 23.0402C12.978 23.396 12.8736 23.7504 12.9235 24.1033C12.967 24.4515 13.2114 24.8024 13.6566 25.1559C14.173 25.5612 14.7164 25.9565 15.2869 26.3418C15.7603 26.6565 16.1726 26.7833 16.5238 26.7222C16.8685 26.6564 17.1702 26.4455 17.429 26.0897C17.6455 25.7921 17.7644 25.4927 17.7856 25.1916C17.8068 24.8905 17.6797 24.5755 17.4045 24.2467C17.3263 24.1502 17.2875 24.0676 17.2881 23.9987C17.2869 23.9188 17.3169 23.8367 17.3781 23.7526L18.3311 22.4425C18.3734 22.3843 18.4281 22.3499 18.4952 22.3393C18.5669 22.3223 18.6296 22.3382 18.6831 22.387C19.0407 22.657 19.3086 22.9755 19.4867 23.3426C19.6631 23.6984 19.756 24.0875 19.7654 24.5098C19.7683 24.9274 19.693 25.3574 19.5394 25.7996C19.3794 26.2372 19.1441 26.6695 18.8335 27.0965Z" fill="white"/>
<path d="M21.7023 23.1792C21.6361 23.2373 21.5635 23.2637 21.4845 23.2585C21.4055 23.2533 21.3369 23.2177 21.2789 23.1515L16.1358 17.2873C16.0778 17.2212 16.0514 17.1486 16.0566 17.0695C16.0617 16.9905 16.0974 16.922 16.1636 16.864L17.3274 15.8433C17.3935 15.7852 17.4661 15.7588 17.5452 15.764C17.6242 15.7692 17.6927 15.8048 17.7507 15.871L19.6576 18.0453L20.208 17.5626L19.5888 14.1632C19.5767 14.0887 19.5845 14.0127 19.6123 13.9351C19.6348 13.8515 19.6881 13.7728 19.7723 13.699L21.0714 12.5596C21.1316 12.5069 21.1982 12.4857 21.2712 12.4962C21.3389 12.5006 21.3939 12.5269 21.4361 12.575C21.4677 12.6111 21.4874 12.6577 21.4949 12.7149L22.2223 16.9292L26.6659 18.2833C26.7051 18.2915 26.7431 18.3167 26.78 18.3588C26.8328 18.4189 26.8565 18.4885 26.8514 18.5676C26.8469 18.6353 26.8146 18.6955 26.7545 18.7483L25.4193 19.9193C25.323 20.0037 25.2324 20.046 25.1474 20.0461C25.0683 20.0409 25.0036 20.0338 24.9532 20.0248L21.5371 18.9507L20.9236 19.4888L22.8938 21.7352C22.9518 21.8013 22.9783 21.8739 22.9731 21.953C22.9679 22.032 22.9322 22.1005 22.8661 22.1585L21.7023 23.1792Z" fill="white"/>
<path d="M27.8888 17.8828C27.8108 17.9236 27.7341 17.9321 27.6585 17.9085C27.5792 17.8777 27.521 17.8269 27.4839 17.756L23.8688 10.8444C23.828 10.7664 23.8194 10.6896 23.8431 10.614C23.8739 10.5347 23.9247 10.4766 23.9956 10.4395L25.3673 9.72201C25.4452 9.68122 25.522 9.67266 25.5976 9.69633C25.6732 9.72 25.7313 9.77082 25.7721 9.8488L28.0135 14.134L28.7692 8.19989C28.775 8.12464 28.797 8.05446 28.8352 7.98936C28.8696 7.91716 28.9329 7.85696 29.0251 7.80876L30.2586 7.16359C30.3295 7.12651 30.4027 7.11981 30.4783 7.14348C30.5609 7.16344 30.6227 7.2124 30.6634 7.29038L34.2786 14.202C34.3194 14.28 34.3244 14.3586 34.2936 14.4379C34.27 14.5135 34.2227 14.5698 34.1518 14.6069L32.7801 15.3244C32.7021 15.3651 32.6218 15.3756 32.5392 15.3556C32.4636 15.3319 32.4054 15.2811 32.3646 15.2031L30.2066 11.0774L29.3781 16.8465C29.3686 16.9146 29.3467 16.9848 29.3122 17.057C29.2848 17.1255 29.2215 17.1857 29.1223 17.2376L27.8888 17.8828Z" fill="white"/>
<path d="M35.957 13.9323C35.8719 13.9547 35.7952 13.9459 35.7268 13.906C35.6584 13.8661 35.613 13.8036 35.5906 13.7185L33.6076 6.17474C33.5853 6.08963 33.594 6.01288 33.634 5.94448C33.6739 5.87609 33.7364 5.8307 33.8215 5.80833L39.2414 4.38364C39.3265 4.36127 39.4033 4.37005 39.4717 4.40997C39.5401 4.44989 39.5854 4.51241 39.6078 4.59752L39.8946 5.68846C39.9169 5.77357 39.9082 5.85032 39.8682 5.91872C39.8283 5.98711 39.7658 6.0325 39.6807 6.05487L35.9785 7.02805L36.3903 8.59482L39.8372 7.68876C39.9223 7.66639 40.0001 7.67903 40.0705 7.72669C40.1389 7.76661 40.1843 7.82913 40.2067 7.91424L40.4721 8.92394C40.4924 9.00131 40.4837 9.07806 40.4458 9.1542C40.4058 9.22259 40.3433 9.26798 40.2582 9.29035L36.8113 10.1964L37.2354 11.8096L41.0304 10.812C41.1156 10.7897 41.1923 10.7984 41.2607 10.8384C41.3291 10.8783 41.3745 10.9408 41.3969 11.0259L41.6836 12.1168C41.706 12.2019 41.6972 12.2787 41.6573 12.3471C41.6174 12.4155 41.5549 12.4609 41.4697 12.4833L35.957 13.9323Z" fill="white"/>
<path d="M45.8807 11.9041C45.7927 11.901 45.7218 11.8706 45.6677 11.8126C45.6137 11.7547 45.5882 11.6818 45.5913 11.5939L45.8622 3.79856C45.8652 3.71061 45.8957 3.63963 45.9536 3.58561C46.0115 3.53159 46.0845 3.5061 46.1724 3.50916L52.8284 3.74045C52.9163 3.74351 52.9873 3.77399 53.0413 3.8319C53.0954 3.88981 53.1208 3.96274 53.1178 4.05069L52.8469 11.846C52.8438 11.9339 52.8134 12.0049 52.7555 12.0589C52.6975 12.113 52.6246 12.1384 52.5367 12.1354L50.9896 12.0816C50.9017 12.0786 50.8307 12.0481 50.7766 11.9902C50.7226 11.9323 50.6971 11.8593 50.7002 11.7714L50.9148 5.59512L47.9526 5.49218L47.738 11.6685C47.7349 11.7564 47.7044 11.8274 47.6465 11.8814C47.5886 11.9354 47.5157 11.9609 47.4278 11.9579L45.8807 11.9041Z" fill="white"/>
<path d="M53.7983 12.2908C53.7132 12.2684 53.6507 12.223 53.6108 12.1546C53.5709 12.0862 53.5621 12.0095 53.5845 11.9244L55.5674 4.38065C55.5898 4.29554 55.6352 4.23303 55.7036 4.1931C55.772 4.15318 55.8487 4.1444 55.9338 4.16677L59.1835 5.02098C59.8256 5.18978 60.3563 5.4368 60.7754 5.76203C61.2042 6.08156 61.4983 6.47319 61.6577 6.93694C61.8247 7.40271 61.829 7.93735 61.6703 8.54085C61.5137 9.13661 61.2492 9.59233 60.8767 9.908C60.5119 10.2257 60.0653 10.4144 59.5368 10.474C59.016 10.5356 58.4345 10.482 57.7923 10.3132L56.4112 9.95016L55.7431 12.4918C55.7208 12.5769 55.6715 12.6384 55.5954 12.6763C55.527 12.7162 55.4502 12.725 55.3651 12.7026L53.7983 12.2908ZM56.7974 8.33941L58.1553 8.69635C58.488 8.7838 58.7734 8.76784 59.0116 8.64847C59.2575 8.53113 59.4262 8.29838 59.5178 7.95021C59.595 7.65619 59.575 7.38623 59.4577 7.14032C59.3403 6.89441 59.0882 6.72061 58.7014 6.61892L57.3435 6.26199L56.7974 8.33941Z" fill="white"/>
<path d="M61.0708 14.183C61.0142 14.1531 60.9723 14.1039 60.9452 14.0353C60.9289 13.9634 60.9357 13.8991 60.9655 13.8425C60.9842 13.8072 61.0045 13.7772 61.0266 13.7526L67.1164 8.25556C67.1787 8.18894 67.2566 8.14413 67.3502 8.12114C67.4545 8.0948 67.5669 8.11337 67.6871 8.17685L69.2578 9.00581C69.3781 9.06929 69.4533 9.14967 69.4833 9.24695C69.5242 9.34089 69.5347 9.43238 69.5149 9.52141L68.4023 17.6454C68.4016 17.6811 68.3918 17.7167 68.3732 17.7521C68.3433 17.8087 68.2905 17.8487 68.2148 17.8721C68.15 17.8921 68.0857 17.8853 68.0221 17.8517L66.7167 17.1628C66.6106 17.1068 66.5423 17.0391 66.5118 16.9597C66.4922 16.8769 66.4865 16.8106 66.4947 16.7607L66.6521 15.4598L63.8186 13.9643L62.844 14.8339C62.8074 14.8689 62.7494 14.9016 62.67 14.9321C62.5944 14.9555 62.4964 14.9354 62.3761 14.872L61.0708 14.183ZM65.0602 12.6657L67.0342 13.7075L67.5153 10.3793L65.0602 12.6657Z" fill="white"/>
<path d="M68.8179 18.426C68.7511 18.3687 68.7147 18.3006 68.7087 18.2216C68.7026 18.1426 68.7283 18.0698 68.7856 18.003L73.8644 12.083C73.9217 12.0162 73.9898 11.9798 74.0688 11.9738C74.1477 11.9677 74.2206 11.9934 74.2874 12.0507L77.0652 14.4338C77.5874 14.8818 77.9529 15.3219 78.1619 15.7541C78.3708 16.1863 78.437 16.6067 78.3605 17.0154C78.2952 17.4232 78.1037 17.8123 77.7859 18.1827C77.5984 18.4012 77.3892 18.5591 77.1584 18.6562C76.9388 18.7524 76.7214 18.803 76.5062 18.8082C76.2971 18.8185 76.1201 18.8036 75.9752 18.7637C76.1121 19.0709 76.1619 19.4245 76.1244 19.8245C76.093 20.2297 75.934 20.5993 75.6475 20.9333C75.3037 21.334 74.9157 21.6019 74.4836 21.7371C74.0627 21.8714 73.6114 21.8691 73.1299 21.73C72.6597 21.5901 72.1756 21.3066 71.6777 20.8794L68.8179 18.426ZM71.2363 18.4453L72.5113 19.5392C72.7724 19.7632 73.0349 19.8566 73.2987 19.8194C73.5625 19.7822 73.7777 19.6664 73.9444 19.4721C74.1267 19.2596 74.2106 19.0206 74.1959 18.7551C74.1874 18.4947 74.0556 18.2552 73.8006 18.0364L72.5255 16.9425L71.2363 18.4453ZM73.5178 15.7859L74.7109 16.8094C74.9598 17.023 75.1997 17.1181 75.4306 17.0948C75.6675 17.0767 75.8718 16.9674 76.0437 16.7671C76.2104 16.5728 76.2821 16.3602 76.2588 16.1294C76.2467 15.8977 76.1163 15.6751 75.8673 15.4615L74.6742 14.4379L73.5178 15.7859Z" fill="white"/>
<path d="M74.5074 23.2902C74.4694 23.2387 74.453 23.1762 74.4584 23.1026C74.4749 23.0307 74.5089 22.9758 74.5604 22.9378C74.5925 22.914 74.6239 22.8958 74.6544 22.8832L82.5266 20.5743C82.6117 20.5413 82.7013 20.5348 82.7956 20.5547C82.901 20.5762 82.9942 20.6417 83.075 20.7511L84.1302 22.1796C84.211 22.289 84.2438 22.3941 84.2287 22.4948C84.2247 22.5971 84.1945 22.6841 84.1379 22.7557L79.6095 29.5916C79.5933 29.6235 79.5691 29.6513 79.5369 29.6751C79.4854 29.7131 79.4205 29.7262 79.3422 29.7145C79.2751 29.7044 79.2201 29.6704 79.1773 29.6125L78.3004 28.4252C78.2291 28.3287 78.1969 28.2381 78.204 28.1533C78.2222 28.0702 78.2458 28.008 78.2749 27.9666L78.9814 26.863L77.0778 24.2858L75.8223 24.6462C75.7742 24.6619 75.7078 24.6662 75.623 24.6592C75.5447 24.6474 75.4651 24.5868 75.3843 24.4774L74.5074 23.2902ZM78.76 23.6549L80.0862 25.4502L81.9642 22.6606L78.76 23.6549Z" fill="white"/>
<circle cx="87" cy="37" r="5" fill="white"/>
</svg>
