<svg width="80" height="80" viewBox="0 0 80 80" fill="none" xmlns="http://www.w3.org/2000/svg">
<g clip-path="url(#clip0_80_56)">
<path d="M77.6562 4.84375H21.25C19.9556 4.84375 18.9062 5.89312 18.9062 7.1875V37.8098C15.7698 38.3473 12.8777 39.947 10.7586 42.3438H9.53125V40C9.53125 38.7056 8.48188 37.6562 7.1875 37.6562H2.34375C1.04937 37.6562 0 38.7056 0 40C0 41.2944 1.04937 42.3438 2.34375 42.3438H4.84375V70.4688H2.34375C1.04937 70.4688 0 71.5181 0 72.8125C0 74.1069 1.04937 75.1562 2.34375 75.1562H7.1875C8.48188 75.1562 9.53125 74.1069 9.53125 72.8125V70.4688H11.5102C26.4575 75.1995 25.8927 75.1562 26.5625 75.1562H58.75C63.5988 75.1562 66.9953 70.3409 65.3781 65.7812H77.6562C78.9506 65.7812 80 64.7319 80 63.4375V7.1875C80 5.89312 78.9506 4.84375 77.6562 4.84375ZM44.6875 9.53125H54.0625V21.25H44.6875V9.53125ZM61.0938 68.125C61.0938 69.4173 60.0423 70.4688 58.75 70.4688H26.9273C11.9802 65.738 12.545 65.7812 11.875 65.7812H9.53125V47.0312H11.875C12.6194 47.0312 13.3195 46.6777 13.7612 46.0786C17.4733 41.0455 25.0238 41.0414 28.7386 46.0786C29.1805 46.6777 29.8806 47.0312 30.625 47.0312H42.3438C43.6361 47.0312 44.6875 48.0827 44.6875 49.375C44.6875 50.6673 43.6361 51.7188 42.3438 51.7188H28.2812C26.9869 51.7188 25.9375 52.7681 25.9375 54.0625C25.9375 60.5242 31.1945 65.7812 37.6562 65.7812H58.75C60.0423 65.7812 61.0938 66.8327 61.0938 68.125ZM75.3125 61.0938C73.8916 61.0938 39.5867 61.0938 37.6562 61.0938C34.6006 61.0938 31.9939 59.1345 31.0266 56.4062H42.3438C46.2208 56.4062 49.375 53.252 49.375 49.375C49.375 45.498 46.2208 42.3438 42.3438 42.3438H31.7414C29.6225 39.947 26.7302 38.3473 23.5938 37.8098V9.53125H40V23.5938C40 24.8881 41.0494 25.9375 42.3438 25.9375H56.4062C57.7006 25.9375 58.75 24.8881 58.75 23.5938V9.53125H75.3125V61.0938Z" fill="black"/>
</g>
<defs>
<clipPath id="clip0_80_56">
<rect width="80" height="80" fill="white"/>
</clipPath>
</defs>
</svg>
