<svg width="80" height="80" viewBox="0 0 80 80" fill="none" xmlns="http://www.w3.org/2000/svg">
<g clip-path="url(#clip0_80_38)">
<path d="M68.4407 11.7157C60.8857 4.16077 50.8406 0 40.1563 0C29.4721 0 19.4269 4.16077 11.872 11.7157C4.31641 19.2707 0.15625 29.3152 0.15625 40.0001C0.15625 50.6843 4.31702 60.7295 11.872 68.2844C19.4269 75.8394 29.4721 80.0002 40.1563 80.0002C50.8406 80.0002 60.8857 75.8394 68.4407 68.2844C75.995 60.7295 80.1558 50.6843 80.1558 40.0001C80.1558 29.3159 75.9956 19.2707 68.4407 11.7157ZM40.1563 75.276C20.705 75.276 4.88038 59.4508 4.88038 40.0001C4.88038 20.5487 20.705 4.72413 40.1563 4.72413C59.6077 4.72413 75.4323 20.5487 75.4323 40.0001C75.4323 59.4514 59.6077 75.276 40.1563 75.276Z" fill="black"/>
<path d="M40.1564 10.2363C23.7446 10.2363 10.3926 23.5884 10.3926 40.0001C10.3926 56.4119 23.7446 69.7639 40.1564 69.7639C56.5681 69.7639 69.9202 56.4119 69.9202 40.0001C69.9202 23.5884 56.5681 10.2363 40.1564 10.2363ZM40.1564 65.0392C26.3496 65.0392 15.1173 53.8069 15.1173 40.0001C15.1173 26.1934 26.3496 14.9611 40.1564 14.9611C53.9631 14.9611 65.1954 26.1934 65.1954 40.0001C65.1954 53.8069 53.9631 65.0392 40.1564 65.0392Z" fill="black"/>
<path d="M57.1633 37.6379H42.5186V22.9932C42.5186 21.6888 41.4608 20.6311 40.1565 20.6311C38.8522 20.6311 37.7944 21.6888 37.7944 22.9932V40C37.7944 41.3043 38.8522 42.3621 40.1565 42.3621H57.1633C58.4677 42.3621 59.5254 41.3043 59.5254 40C59.5254 38.6957 58.4677 37.6379 57.1633 37.6379Z" fill="black"/>
</g>
<defs>
<clipPath id="clip0_80_38">
<rect width="80" height="80" fill="white"/>
</clipPath>
</defs>
</svg>
