<svg width="80" height="80" viewBox="0 0 80 80" fill="none" xmlns="http://www.w3.org/2000/svg">
<g clip-path="url(#clip0_80_28)">
<path d="M77.6562 28.4374H71.7456L52.5334 0.999621C51.7909 -0.0606917 50.3295 -0.318348 49.2692 0.423996L9.26203 28.4374H2.34375C1.04937 28.4374 0 29.4868 0 30.7812V77.6562C0 78.9506 1.04937 79.9999 2.34375 79.9999H77.6562C78.9506 79.9999 80 78.9506 80 77.6562V30.7812C80 29.4868 78.9506 28.4374 77.6562 28.4374ZM50.0381 5.60821L66.0234 28.4374H60.3011L53.8161 19.1759C53.0736 18.1156 51.6122 17.8579 50.5519 18.6002C48.7875 19.8357 46.3469 19.4054 45.1116 17.6409C44.3691 16.5806 42.9078 16.3229 41.8475 17.0654L25.6066 28.4374H17.4344L50.0381 5.60821ZM54.5787 28.4374H33.7789L42.8822 22.0634C45.1861 23.9392 48.3283 24.4932 51.1344 23.5184L54.5787 28.4374ZM75.3125 75.3124H4.6875V33.1249H75.3125V75.3124Z" fill="black"/>
<path d="M11.7188 64.375C13.8727 64.375 15.625 66.1273 15.625 68.2812C15.625 69.5756 16.6744 70.625 17.9688 70.625H62.0312C63.3256 70.625 64.375 69.5756 64.375 68.2812C64.375 66.1273 66.1273 64.375 68.2812 64.375C69.5756 64.375 70.625 63.3256 70.625 62.0312V46.4062C70.625 45.1119 69.5756 44.0625 68.2812 44.0625C66.1273 44.0625 64.375 42.3102 64.375 40.1562C64.375 38.8619 63.3256 37.8125 62.0312 37.8125H17.9688C16.6744 37.8125 15.625 38.8619 15.625 40.1562C15.625 42.3102 13.8727 44.0625 11.7188 44.0625C10.4244 44.0625 9.375 45.1119 9.375 46.4062V62.0312C9.375 63.3256 10.4244 64.375 11.7188 64.375ZM14.0625 48.4252C16.9205 47.6141 19.1766 45.358 19.9877 42.5H60.0122C60.8233 45.358 63.0794 47.6141 65.9373 48.4252V60.0122C63.0794 60.8233 60.8233 63.0794 60.0122 65.9373H19.9877C19.1766 63.0794 16.9205 60.8233 14.0625 60.0122V48.4252Z" fill="black"/>
<path d="M40 61.25C43.877 61.25 47.0312 58.0958 47.0312 54.2188C47.0312 50.3417 43.877 47.1875 40 47.1875C36.123 47.1875 32.9688 50.3417 32.9688 54.2188C32.9688 58.0958 36.123 61.25 40 61.25ZM40 51.875C41.2923 51.875 42.3438 52.9264 42.3438 54.2188C42.3438 55.5111 41.2923 56.5625 40 56.5625C38.7077 56.5625 37.6562 55.5111 37.6562 54.2188C37.6562 52.9264 38.7077 51.875 40 51.875Z" fill="black"/>
<path d="M55.625 56.5625H58.75C60.0444 56.5625 61.0938 55.5131 61.0938 54.2188C61.0938 52.9244 60.0444 51.875 58.75 51.875H55.625C54.3306 51.875 53.2812 52.9244 53.2812 54.2188C53.2812 55.5131 54.3306 56.5625 55.625 56.5625Z" fill="black"/>
<path d="M21.25 56.5625H24.375C25.6694 56.5625 26.7188 55.5131 26.7188 54.2188C26.7188 52.9244 25.6694 51.875 24.375 51.875H21.25C19.9556 51.875 18.9062 52.9244 18.9062 54.2188C18.9062 55.5131 19.9556 56.5625 21.25 56.5625Z" fill="black"/>
</g>
<defs>
<clipPath id="clip0_80_28">
<rect width="80" height="80" fill="white"/>
</clipPath>
</defs>
</svg>
