<svg width="80" height="80" viewBox="0 0 80 80" fill="none" xmlns="http://www.w3.org/2000/svg">
<path d="M66.5625 9.6875H64.2188V7.03125C64.2188 3.15422 61.0645 0 57.1875 0H24.375C23.7533 0 23.1573 0.247031 22.7178 0.686563L7.09281 16.3116C6.65328 16.7511 6.40625 17.347 6.40625 17.9688V63.5938C6.40625 67.4708 9.56047 70.625 13.4375 70.625H15.7812V72.9688C15.7812 76.8458 18.9355 80 22.8125 80H66.5625C70.4395 80 73.5938 76.8458 73.5938 72.9688V16.7188C73.5938 12.8417 70.4395 9.6875 66.5625 9.6875ZM22.0312 8.00203V15.625H14.4083L22.0312 8.00203ZM13.4375 65.9375C12.1452 65.9375 11.0938 64.8861 11.0938 63.5938V20.3125H24.375C25.6694 20.3125 26.7188 19.2631 26.7188 17.9688V4.6875H57.1875C58.4798 4.6875 59.5312 5.73891 59.5312 7.03125V63.5938C59.5312 64.8861 58.4798 65.9375 57.1875 65.9375H13.4375ZM68.9062 72.9688C68.9062 74.2611 67.8548 75.3125 66.5625 75.3125H22.8125C21.5202 75.3125 20.4688 74.2611 20.4688 72.9688V70.625H57.1875C61.0645 70.625 64.2188 67.4708 64.2188 63.5938V14.375H66.5625C67.8548 14.375 68.9062 15.4264 68.9062 16.7188V72.9688Z" fill="black"/>
<path d="M50.3925 19.2586C51.2258 18.1031 51.7188 16.6866 51.7188 15.1562C51.7188 11.2792 48.5645 8.125 44.6875 8.125C40.8105 8.125 37.6562 11.2792 37.6562 15.1562C37.6562 16.6866 38.1492 18.1031 38.9825 19.2586C36.2978 21.0883 34.5312 24.1695 34.5312 27.6562V30.7812C34.5312 32.0756 35.5806 33.125 36.875 33.125H52.5C53.7944 33.125 54.8438 32.0756 54.8438 30.7812V27.6562C54.8438 24.1695 53.0772 21.0883 50.3925 19.2586ZM44.6875 12.8125C45.9798 12.8125 47.0312 13.8639 47.0312 15.1562C47.0312 16.4486 45.9798 17.5 44.6875 17.5C43.3952 17.5 42.3438 16.4486 42.3438 15.1562C42.3438 13.8639 43.3952 12.8125 44.6875 12.8125ZM50.1562 28.4375H39.2188V27.6562C39.2188 24.6408 41.672 22.1875 44.6875 22.1875C47.703 22.1875 50.1562 24.6408 50.1562 27.6562V28.4375Z" fill="black"/>
<path d="M18.125 33.125H29.0625C30.3569 33.125 31.4062 32.0756 31.4062 30.7812C31.4062 29.4869 30.3569 28.4375 29.0625 28.4375H18.125C16.8306 28.4375 15.7812 29.4869 15.7812 30.7812C15.7812 32.0756 16.8306 33.125 18.125 33.125Z" fill="black"/>
<path d="M52.5 37.8125H18.125C16.8306 37.8125 15.7812 38.8619 15.7812 40.1562C15.7812 41.4506 16.8306 42.5 18.125 42.5H52.5C53.7944 42.5 54.8438 41.4506 54.8438 40.1562C54.8438 38.8619 53.7944 37.8125 52.5 37.8125Z" fill="black"/>
<path d="M52.5 47.1875H18.125C16.8306 47.1875 15.7812 48.2369 15.7812 49.5312C15.7812 50.8256 16.8306 51.875 18.125 51.875H52.5C53.7944 51.875 54.8438 50.8256 54.8438 49.5312C54.8438 48.2369 53.7944 47.1875 52.5 47.1875Z" fill="black"/>
<path d="M52.5 56.5625H18.125C16.8306 56.5625 15.7812 57.6119 15.7812 58.9062C15.7812 60.2006 16.8306 61.25 18.125 61.25H52.5C53.7944 61.25 54.8438 60.2006 54.8438 58.9062C54.8438 57.6119 53.7944 56.5625 52.5 56.5625Z" fill="black"/>
</svg>
