<svg width="60" height="60" viewBox="0 0 60 60" fill="none" xmlns="http://www.w3.org/2000/svg">
<path d="M52.8047 2.22656H14.2125C13.9949 2.22656 13.7863 2.31299 13.6324 2.46683C13.4786 2.62067 13.3922 2.82931 13.3922 3.04688V10.5197H7.19342C6.9759 10.5198 6.76732 10.6063 6.61351 10.7601C6.4597 10.9139 6.37323 11.1225 6.37311 11.34V56.9531C6.37311 57.1707 6.45953 57.3793 6.61337 57.5332C6.76721 57.687 6.97586 57.7734 7.19342 57.7734H45.7894C46.0069 57.7734 46.2156 57.687 46.3694 57.5332C46.5232 57.3793 46.6097 57.1707 46.6097 56.9531V49.4812H52.8047C53.0222 49.4813 53.2309 49.3948 53.3847 49.241C53.5386 49.0872 53.625 48.8785 53.625 48.6609V3.04688C53.625 2.93913 53.6039 2.83244 53.5627 2.73288C53.5215 2.63333 53.461 2.54287 53.3849 2.46669C53.3087 2.3905 53.2182 2.33008 53.1187 2.28888C53.0191 2.24768 52.9124 2.2265 52.8047 2.22656ZM8.01561 56.1328V12.1603H44.969V48.6427V48.6609C44.969 48.6609 44.969 48.6727 44.969 48.6787V56.1319L8.01561 56.1328ZM51.9844 47.8406H46.6097V11.34C46.6095 11.1225 46.5231 10.9139 46.3693 10.7601C46.2155 10.6063 46.0069 10.5198 45.7894 10.5197H15.0328V3.86719H51.9844V47.8406Z" fill="white"/>
<path d="M39.968 16.4531H30C29.7824 16.4531 29.5738 16.5396 29.42 16.6934C29.2661 16.8472 29.1797 17.0559 29.1797 17.2734C29.1797 17.491 29.2661 17.6996 29.42 17.8535C29.5738 18.0073 29.7824 18.0938 30 18.0938H39.968C40.1855 18.0938 40.3942 18.0073 40.548 17.8535C40.7019 17.6996 40.7883 17.491 40.7883 17.2734C40.7883 17.0559 40.7019 16.8472 40.548 16.6934C40.3942 16.5396 40.1855 16.4531 39.968 16.4531Z" fill="white"/>
<path d="M39.968 24.8906H13.0148C12.7973 24.8906 12.5886 24.9771 12.4348 25.1309C12.2809 25.2847 12.1945 25.4934 12.1945 25.7109C12.1945 25.9285 12.2809 26.1371 12.4348 26.291C12.5886 26.4448 12.7973 26.5312 13.0148 26.5312H39.968C40.1855 26.5312 40.3942 26.4448 40.548 26.291C40.7018 26.1371 40.7883 25.9285 40.7883 25.7109C40.7883 25.4934 40.7018 25.2847 40.548 25.1309C40.3942 24.9771 40.1855 24.8906 39.968 24.8906Z" fill="white"/>
<path d="M39.968 29.1094H13.0148C12.9071 29.1094 12.8004 29.1306 12.7009 29.1718C12.6014 29.213 12.511 29.2735 12.4348 29.3496C12.3586 29.4258 12.2982 29.5162 12.257 29.6158C12.2157 29.7153 12.1945 29.822 12.1945 29.9297C12.1945 30.0374 12.2157 30.1441 12.257 30.2436C12.2982 30.3431 12.3586 30.4336 12.4348 30.5097C12.511 30.5859 12.6014 30.6463 12.7009 30.6876C12.8004 30.7288 12.9071 30.75 13.0148 30.75H39.968C40.1855 30.75 40.3942 30.6636 40.548 30.5097C40.7018 30.3559 40.7883 30.1472 40.7883 29.9297C40.7883 29.7121 40.7018 29.5035 40.548 29.3496C40.3942 29.1958 40.1855 29.1094 39.968 29.1094Z" fill="white"/>
<path d="M39.968 33.3281H13.0148C12.7973 33.3281 12.5886 33.4146 12.4348 33.5684C12.2809 33.7222 12.1945 33.9309 12.1945 34.1484C12.1945 34.366 12.2809 34.5747 12.4348 34.7285C12.5886 34.8823 12.7973 34.9688 13.0148 34.9688H39.968C40.1855 34.9688 40.3942 34.8823 40.548 34.7285C40.7018 34.5747 40.7883 34.366 40.7883 34.1484C40.7883 33.9309 40.7018 33.7222 40.548 33.5684C40.3942 33.4146 40.1855 33.3281 39.968 33.3281Z" fill="white"/>
<path d="M39.968 37.5469H13.0148C12.7973 37.5469 12.5886 37.6333 12.4348 37.7871C12.2809 37.941 12.1945 38.1496 12.1945 38.3672C12.1945 38.5847 12.2809 38.7934 12.4348 38.9472C12.5886 39.1011 12.7973 39.1875 13.0148 39.1875H39.968C40.1855 39.1875 40.3942 39.1011 40.548 38.9472C40.7018 38.7934 40.7883 38.5847 40.7883 38.3672C40.7883 38.1496 40.7018 37.941 40.548 37.7871C40.3942 37.6333 40.1855 37.5469 39.968 37.5469Z" fill="white"/>
<path d="M39.968 41.7656H13.0148C12.7973 41.7656 12.5886 41.8521 12.4348 42.0059C12.2809 42.1597 12.1945 42.3684 12.1945 42.5859C12.1945 42.8035 12.2809 43.0122 12.4348 43.166C12.5886 43.3198 12.7973 43.4062 13.0148 43.4062H39.968C40.1855 43.4062 40.3942 43.3198 40.548 43.166C40.7018 43.0122 40.7883 42.8035 40.7883 42.5859C40.7883 42.3684 40.7018 42.1597 40.548 42.0059C40.3942 41.8521 40.1855 41.7656 39.968 41.7656Z" fill="white"/>
<path d="M39.968 45.9844H13.0148C12.7973 45.9844 12.5886 46.0708 12.4348 46.2246C12.2809 46.3785 12.1945 46.5871 12.1945 46.8047C12.1945 47.0222 12.2809 47.2309 12.4348 47.3847C12.5886 47.5386 12.7973 47.625 13.0148 47.625H39.968C40.1855 47.625 40.3942 47.5386 40.548 47.3847C40.7018 47.2309 40.7883 47.0222 40.7883 46.8047C40.7883 46.5871 40.7018 46.3785 40.548 46.2246C40.3942 46.0708 40.1855 45.9844 39.968 45.9844Z" fill="white"/>
<path d="M34.9219 50.2031H18.0609C17.8434 50.2031 17.6347 50.2896 17.4809 50.4434C17.327 50.5972 17.2406 50.8059 17.2406 51.0234C17.2406 51.241 17.327 51.4497 17.4809 51.6035C17.6347 51.7573 17.8434 51.8438 18.0609 51.8438H34.9219C35.1394 51.8438 35.3481 51.7573 35.5019 51.6035C35.6557 51.4497 35.7422 51.241 35.7422 51.0234C35.7422 50.8059 35.6557 50.5972 35.5019 50.4434C35.3481 50.2896 35.1394 50.2031 34.9219 50.2031Z" fill="white"/>
</svg>
