<svg width="60" height="60" viewBox="0 0 60 60" fill="none" xmlns="http://www.w3.org/2000/svg">
<path d="M57.2986 48.5706L48.5977 39.8697L48.7777 39.6897C49.3262 39.1398 49.6343 38.3948 49.6343 37.6181C49.6343 36.8413 49.3262 36.0963 48.7777 35.5464L38.5739 25.3431C38.42 25.1894 38.2114 25.103 37.9939 25.103C37.7763 25.103 37.5677 25.1894 37.4138 25.3431L25.343 37.4139C25.1894 37.5679 25.1031 37.7765 25.1031 37.994C25.1031 38.2115 25.1894 38.4201 25.343 38.5741L35.5463 48.7773C35.8183 49.0495 36.1413 49.2653 36.4967 49.4126C36.8522 49.5599 37.2332 49.6357 37.6179 49.6357C38.0027 49.6357 38.3837 49.5599 38.7391 49.4126C39.0946 49.2653 39.4175 49.0495 39.6896 48.7773L39.8691 48.5978L48.5705 57.2988C48.7243 57.4525 48.9329 57.5389 49.1503 57.5389C49.3678 57.5389 49.5764 57.4525 49.7302 57.2988C49.884 57.145 49.9704 56.9364 49.9704 56.7189C49.9704 56.5014 49.884 56.2929 49.7302 56.1391L41.0292 47.4377L47.4375 41.0294L56.1389 49.7308C56.2146 49.8091 56.3052 49.8716 56.4052 49.9146C56.5053 49.9575 56.613 49.9801 56.7219 49.9811C56.8308 49.982 56.9388 49.9612 57.0396 49.9199C57.1404 49.8787 57.232 49.8178 57.309 49.7407C57.386 49.6637 57.4469 49.5721 57.4882 49.4713C57.5294 49.3704 57.5501 49.2624 57.5491 49.1535C57.5482 49.0446 57.5255 48.9369 57.4825 48.8369C57.4395 48.7368 57.377 48.6463 57.2986 48.5706ZM36.7069 47.6172L27.0835 37.9942L37.9941 27.0831L47.6171 36.7066C47.8584 36.9485 47.994 37.2763 47.994 37.6181C47.994 37.9598 47.8584 38.2876 47.6171 38.5295L38.5313 47.6172C38.2858 47.8522 37.959 47.9834 37.6191 47.9834C37.2792 47.9834 36.9524 47.8522 36.7069 47.6172Z" fill="white"/>
<path d="M31.5394 25.7036C31.9566 25.2858 32.1909 24.7195 32.1909 24.1291C32.1909 23.5387 31.9566 22.9724 31.5394 22.5546L29.4895 20.5047L30.1552 17.4579C30.1846 17.3235 30.1797 17.184 30.1411 17.052C30.1024 16.92 30.0312 16.7999 29.9339 16.7027L23.9564 10.7257C23.5386 10.3088 22.9724 10.0746 22.3821 10.0746C21.7918 10.0746 21.2257 10.3088 20.8078 10.7257L20.1309 11.4025L11.4295 2.7016C11.2758 2.54782 11.0672 2.46143 10.8497 2.46143C10.6322 2.46143 10.4236 2.54782 10.2699 2.7016C10.1161 2.85539 10.0297 3.06397 10.0297 3.28145C10.0297 3.49893 10.1161 3.70751 10.2699 3.86129L22.1452 15.7366L15.7369 22.1454L3.8611 10.2696C3.78542 10.1912 3.69489 10.1288 3.5948 10.0858C3.49471 10.0428 3.38706 10.0202 3.27814 10.0193C3.16922 10.0184 3.06121 10.0391 2.9604 10.0804C2.8596 10.1217 2.76802 10.1826 2.69101 10.2596C2.61401 10.3367 2.55312 10.4283 2.51189 10.5291C2.47066 10.6299 2.44993 10.7379 2.4509 10.8469C2.45187 10.9558 2.47452 11.0634 2.51753 11.1635C2.56054 11.2636 2.62305 11.3541 2.70142 11.4297L11.4024 20.1311L10.7255 20.808C10.3086 21.2259 10.0744 21.792 10.0744 22.3823C10.0744 22.9726 10.3086 23.5387 10.7255 23.9566L16.703 29.9341C16.8004 30.0311 16.9205 30.1022 17.0524 30.1409C17.1843 30.1797 17.3238 30.1848 17.4581 30.1558L20.505 29.4897L22.5553 31.5396C22.762 31.7464 23.0074 31.9105 23.2776 32.0224C23.5477 32.1344 23.8372 32.192 24.1296 32.192C24.422 32.192 24.7116 32.1344 24.9817 32.0224C25.2518 31.9105 25.4972 31.7464 25.7039 31.5396L31.5394 25.7036ZM23.7145 30.3799L21.3469 28.0127C21.2496 27.9156 21.1296 27.8445 20.9978 27.8057C20.8659 27.767 20.7265 27.7619 20.5922 27.791L17.5453 28.4571L11.8856 22.7969C11.776 22.6868 11.7145 22.5377 11.7145 22.3823C11.7145 22.2269 11.776 22.0778 11.8856 21.9677L12.5625 21.2908L15.1566 23.8854C15.2327 23.9616 15.3231 24.0221 15.4227 24.0633C15.5222 24.1046 15.6289 24.1258 15.7367 24.1258C15.8444 24.1258 15.9511 24.1046 16.0506 24.0633C16.1502 24.0221 16.2406 23.9616 16.3167 23.8854L23.8852 16.3169C24.0389 16.163 24.1253 15.9544 24.1253 15.7368C24.1253 15.5193 24.0389 15.3107 23.8852 15.1568L21.2906 12.5627L21.9675 11.8858C22.0775 11.7761 22.2265 11.7145 22.3819 11.7145C22.5372 11.7145 22.6863 11.7761 22.7963 11.8858L28.4564 17.546L27.7908 20.5929C27.7613 20.7272 27.7662 20.8668 27.8048 20.9987C27.8435 21.1307 27.9148 21.2508 28.012 21.348L30.3797 23.7152C30.4895 23.8251 30.5512 23.9742 30.5512 24.1296C30.5512 24.285 30.4895 24.434 30.3797 24.5439L24.5428 30.3799C24.4312 30.4863 24.2829 30.5457 24.1287 30.5457C23.9745 30.5457 23.8261 30.4863 23.7145 30.3799Z" fill="white"/>
<path d="M25.291 22.9082L22.9083 25.2909C22.7545 25.4447 22.668 25.6534 22.668 25.871C22.668 26.0886 22.7545 26.2972 22.9083 26.4511C23.0622 26.6049 23.2708 26.6913 23.4884 26.6913C23.706 26.6913 23.9146 26.6049 24.0685 26.4511L26.4511 24.0684C26.5273 23.9922 26.5877 23.9018 26.6289 23.8023C26.6702 23.7027 26.6914 23.5961 26.6914 23.4883C26.6914 23.3806 26.6702 23.2739 26.6289 23.1744C26.5877 23.0749 26.5273 22.9844 26.4511 22.9082C26.3749 22.8321 26.2845 22.7716 26.185 22.7304C26.0854 22.6892 25.9788 22.668 25.871 22.668C25.7633 22.668 25.6566 22.6892 25.5571 22.7304C25.4576 22.7716 25.3671 22.8321 25.291 22.9082Z" fill="white"/>
<path d="M40.0252 32.9066C39.8713 32.7529 39.6626 32.6665 39.4451 32.6665C39.2276 32.6665 39.0189 32.7529 38.865 32.9066L32.9063 38.8654C32.83 38.9415 32.7695 39.0319 32.7283 39.1315C32.687 39.231 32.6658 39.3377 32.6658 39.4454C32.6658 39.5532 32.687 39.6599 32.7283 39.7594C32.7695 39.8589 32.83 39.9494 32.9063 40.0255L35.5866 42.7035C35.6627 42.7797 35.7531 42.8402 35.8527 42.8815C35.9522 42.9227 36.0589 42.944 36.1667 42.944C36.2744 42.944 36.3811 42.9227 36.4806 42.8815C36.5802 42.8402 36.6706 42.7797 36.7467 42.7035L42.7055 36.7457C42.7817 36.6695 42.8422 36.5791 42.8835 36.4796C42.9247 36.38 42.946 36.2733 42.946 36.1656C42.946 36.0578 42.9247 35.9511 42.8835 35.8516C42.8422 35.7521 42.7817 35.6617 42.7055 35.5855L40.0252 32.9066ZM36.1669 40.9658L34.6467 39.4452L39.4449 34.6471L40.9655 36.1672L36.1669 40.9658Z" fill="white"/>
</svg>
