<svg width="60" height="60" viewBox="0 0 60 60" fill="none" xmlns="http://www.w3.org/2000/svg">
<path d="M59.1797 9.02344H0.820312C0.60279 9.02356 0.394213 9.11003 0.240401 9.26384C0.0865896 9.41765 0.000124192 9.62623 0 9.84375L0 50.1534C0.000124192 50.371 0.0865896 50.5795 0.240401 50.7333C0.394213 50.8872 0.60279 50.9736 0.820312 50.9738H59.1797C59.3972 50.9738 59.6059 50.8873 59.7597 50.7335C59.9136 50.5796 60 50.371 60 50.1534V9.84375C60 9.62619 59.9136 9.41754 59.7597 9.2637C59.6059 9.10986 59.3972 9.02344 59.1797 9.02344ZM1.64062 10.6641H58.3594V13.7147H1.64062V10.6641ZM1.64062 15.3553H29.1797V49.3331H1.64062V15.3553ZM58.3594 49.3331H30.8203V15.3553H58.3594V49.3331Z" fill="white"/>
<path d="M26.25 17.4648H4.57031C4.35279 17.465 4.14421 17.5514 3.9904 17.7052C3.83659 17.8591 3.75012 18.0676 3.75 18.2852V46.4036C3.75012 46.6211 3.83659 46.8297 3.9904 46.9835C4.14421 47.1373 4.35279 47.2238 4.57031 47.2239H26.25C26.4675 47.2238 26.6761 47.1373 26.8299 46.9835C26.9837 46.8297 27.0702 46.6211 27.0703 46.4036V18.2852C27.0702 18.0676 26.9837 17.8591 26.8299 17.7052C26.6761 17.5514 26.4675 17.465 26.25 17.4648ZM25.4297 45.5833H5.39062V43.8489C5.39024 42.8199 5.69105 41.8133 6.25597 40.9533C6.82089 40.0933 7.6252 39.4174 8.56969 39.0091L10.1902 38.3059C11.6347 39.5714 13.4897 40.269 15.4102 40.269C17.3306 40.269 19.1856 39.5714 20.6302 38.3059L22.2506 39.0091C23.1947 39.4172 23.9988 40.0927 24.5637 40.9523C25.1286 41.8119 25.4296 42.818 25.4297 43.8466V45.5833ZM13.6514 35.4583L12.3389 34.5025C11.966 34.2301 11.6626 33.8738 11.4531 33.4622C11.2437 33.0507 11.1341 32.5957 11.1333 32.1339V27.6564C11.134 27.004 11.3935 26.3786 11.8547 25.9172C12.316 25.4559 12.9414 25.1963 13.5938 25.1955H17.228C17.8802 25.1966 18.5053 25.4563 18.9664 25.9176C19.4274 26.3789 19.6868 27.0042 19.6875 27.6564V32.1348C19.6868 32.5965 19.5774 33.0515 19.368 33.463C19.1586 33.8744 18.8552 34.2307 18.4823 34.503L17.1698 35.4592C17.0529 35.5444 16.9605 35.6589 16.9021 35.7913C16.8437 35.9236 16.8213 36.0691 16.8373 36.2129C16.8532 36.3566 16.9069 36.4936 16.9929 36.61C17.0789 36.7263 17.1941 36.8179 17.3269 36.8753L18.9136 37.5625C17.876 38.2533 16.6574 38.6219 15.4109 38.6219C14.1644 38.6219 12.9457 38.2533 11.9081 37.5625L13.4953 36.8753C13.6281 36.8179 13.7433 36.7263 13.8293 36.61C13.9153 36.4936 13.969 36.3566 13.9849 36.2129C14.0008 36.0691 13.9785 35.9236 13.9201 35.7913C13.8617 35.6589 13.7693 35.5444 13.6523 35.4592L13.6514 35.4583ZM22.9022 37.5002L20.7867 36.5847L19.297 35.9402L19.4494 35.8291C20.0307 35.4041 20.5037 34.8482 20.8301 34.2064C21.1565 33.5646 21.3271 32.8549 21.3281 32.1348V27.6564C21.3269 26.569 20.8944 25.5265 20.1254 24.7575C19.3565 23.9886 18.314 23.5561 17.2266 23.5548H13.5938C12.5062 23.5558 11.4634 23.9883 10.6943 24.7572C9.92515 25.5262 9.49249 26.5688 9.49125 27.6564V32.1348C9.49243 32.8551 9.66332 33.565 9.99006 34.2069C10.3168 34.8488 10.7902 35.4047 11.3719 35.8295L11.5242 35.9406L10.0341 36.5852L7.91813 37.5002C6.94193 37.9234 6.07688 38.5667 5.39062 39.3798V19.1055H25.4297V39.3794C24.7434 38.5664 23.8783 37.9233 22.9022 37.5002Z" fill="white"/>
<path d="M51.6717 39.3019L49.9875 34.6988C49.9297 34.5413 49.8251 34.4052 49.6876 34.309C49.5502 34.2128 49.3865 34.161 49.2187 34.1606H39.9628C39.7947 34.1606 39.6306 34.2121 39.4928 34.3084C39.355 34.4046 39.25 34.5409 39.1922 34.6988L37.508 39.3019C36.9254 39.3337 36.3753 39.5798 35.9634 39.9929C35.5514 40.406 35.3069 40.9569 35.2768 41.5395C35.2467 42.1221 35.4332 42.6953 35.8004 43.1486C36.1676 43.6019 36.6895 43.9034 37.2656 43.995V44.9972C37.2664 45.5875 37.5012 46.1534 37.9186 46.5708C38.336 46.9882 38.9019 47.223 39.4922 47.2238H40.4297C41.02 47.223 41.5859 46.9882 42.0033 46.5708C42.4207 46.1534 42.6555 45.5875 42.6562 44.9972V44.0339H46.5197V44.9972C46.5204 45.5875 46.7553 46.1534 47.1727 46.5708C47.5901 46.9882 48.156 47.223 48.7462 47.2238H49.6837C50.274 47.223 50.8399 46.9882 51.2573 46.5708C51.6747 46.1534 51.9096 45.5875 51.9103 44.9972V43.995C52.4864 43.9035 53.0083 43.602 53.3755 43.1487C53.7427 42.6954 53.9293 42.1223 53.8993 41.5397C53.8692 40.9571 53.6248 40.4062 53.2129 39.9931C52.8011 39.5799 52.2509 39.3337 51.6684 39.3019H51.6717ZM40.5361 35.8013H48.6455L49.9214 39.2878H39.2602L40.5361 35.8013ZM41.0156 44.9972C41.0155 45.1526 40.9537 45.3015 40.8439 45.4114C40.734 45.5212 40.585 45.583 40.4297 45.5831H39.4922C39.3368 45.5831 39.1878 45.5214 39.0779 45.4115C38.968 45.3016 38.9062 45.1526 38.9062 44.9972V44.0339H41.0156V44.9972ZM50.2711 44.9972C50.271 45.1526 50.2092 45.3015 50.0993 45.4114C49.9895 45.5212 49.8405 45.583 49.6852 45.5831H48.7477C48.5923 45.583 48.4433 45.5212 48.3335 45.4114C48.2236 45.3015 48.1618 45.1526 48.1617 44.9972V44.0339H50.2711V44.9972ZM51.5297 42.3933H37.6481C37.4571 42.3885 37.2755 42.3092 37.1421 42.1724C37.0087 42.0355 36.934 41.852 36.934 41.6609C36.934 41.4698 37.0087 41.2862 37.1421 41.1494C37.2755 41.0126 37.4571 40.9333 37.6481 40.9285H51.5316C51.7226 40.9333 51.9042 41.0126 52.0376 41.1494C52.171 41.2862 52.2457 41.4698 52.2457 41.6609C52.2457 41.852 52.171 42.0355 52.0376 42.1724C51.9042 42.3092 51.7226 42.3885 51.5316 42.3933H51.5297Z" fill="white"/>
<path d="M33.75 19.1055H55.4297C55.6472 19.1055 55.8559 19.019 56.0097 18.8652C56.1636 18.7114 56.25 18.5027 56.25 18.2852C56.25 18.0676 56.1636 17.8589 56.0097 17.7051C55.8559 17.5513 55.6472 17.4648 55.4297 17.4648H33.75C33.5324 17.4648 33.3238 17.5513 33.17 17.7051C33.0161 17.8589 32.9297 18.0676 32.9297 18.2852C32.9297 18.5027 33.0161 18.7114 33.17 18.8652C33.3238 19.019 33.5324 19.1055 33.75 19.1055Z" fill="white"/>
<path d="M36.1814 21.2148C35.9638 21.2148 35.7552 21.3013 35.6014 21.4551C35.4475 21.6089 35.3611 21.8176 35.3611 22.0352C35.3611 22.2527 35.4475 22.4614 35.6014 22.6152C35.7552 22.769 35.9638 22.8555 36.1814 22.8555H52.9978C53.2154 22.8555 53.424 22.769 53.5779 22.6152C53.7317 22.4614 53.8181 22.2527 53.8181 22.0352C53.8181 21.8176 53.7317 21.6089 53.5779 21.4551C53.424 21.3013 53.2154 21.2148 52.9978 21.2148H36.1814Z" fill="white"/>
<path d="M33.75 26.605H55.4297C55.6472 26.605 55.8559 26.5186 56.0097 26.3647C56.1636 26.2109 56.25 26.0022 56.25 25.7847C56.25 25.5671 56.1636 25.3585 56.0097 25.2046C55.8559 25.0508 55.6472 24.9644 55.4297 24.9644H33.75C33.5324 24.9644 33.3238 25.0508 33.17 25.2046C33.0161 25.3585 32.9297 25.5671 32.9297 25.7847C32.9297 26.0022 33.0161 26.2109 33.17 26.3647C33.3238 26.5186 33.5324 26.605 33.75 26.605Z" fill="white"/>
<path d="M52.9978 30.355C53.2154 30.355 53.424 30.2686 53.5779 30.1147C53.7317 29.9609 53.8181 29.7522 53.8181 29.5347C53.8181 29.3171 53.7317 29.1085 53.5779 28.9546C53.424 28.8008 53.2154 28.7144 52.9978 28.7144H36.1814C35.9638 28.7144 35.7552 28.8008 35.6014 28.9546C35.4475 29.1085 35.3611 29.3171 35.3611 29.5347C35.3611 29.7522 35.4475 29.9609 35.6014 30.1147C35.7552 30.2686 35.9638 30.355 36.1814 30.355H52.9978Z" fill="white"/>
</svg>
