<svg width="60" height="60" viewBox="0 0 60 60" fill="none" xmlns="http://www.w3.org/2000/svg">
<g clip-path="url(#clip0_10_125)">
<path d="M57.9719 11.8183L39.7922 29.9998L57.9719 48.1805C60.676 50.8857 60.676 55.2677 57.9719 57.9728C56.6207 59.3239 54.8493 60 53.0788 60C51.3053 60 49.5338 59.325 48.1837 57.9728L30.0001 39.7901L11.8179 57.9726C10.4669 59.3238 8.69536 59.9998 6.92327 59.9998C5.1517 59.9998 3.38133 59.3248 2.02918 57.9726C-0.674953 55.2687 -0.674953 50.8865 2.02918 48.1803L20.2083 29.9997L2.02814 11.8183C-0.675987 9.1142 -0.675987 4.73116 2.02814 2.02703C4.73175 -0.675027 9.11221 -0.675027 11.8169 2.02703L29.9999 20.2085L48.1816 2.02703C50.8868 -0.675027 55.2677 -0.675027 57.9708 2.02703C60.676 4.73116 60.676 9.1142 57.9719 11.8183Z" fill="white"/>
</g>
<defs>
<clipPath id="clip0_10_125">
<rect width="60" height="60" fill="white"/>
</clipPath>
</defs>
</svg>
