<svg width="108" height="108" viewBox="0 0 108 108" fill="none" xmlns="http://www.w3.org/2000/svg">
<g clip-path="url(#clip0_35_449)" filter="url(#filter0_d_35_449)">
<path d="M101.07 35.5468H93.682L69.6668 1.24953C68.7387 -0.0758646 66.9119 -0.397935 65.5865 0.529995L15.5775 35.5468H6.92969C5.31172 35.5468 4 36.8585 4 38.4765V97.0702C4 98.6882 5.31172 99.9999 6.92969 99.9999H101.07C102.688 99.9999 104 98.6882 104 97.0702V38.4765C104 36.8585 102.688 35.5468 101.07 35.5468ZM66.5477 7.01027L86.5293 35.5468H79.3764L71.2701 23.9698C70.342 22.6444 68.5152 22.3224 67.1898 23.2503C64.9844 24.7946 61.9336 24.2568 60.3895 22.0511C59.4613 20.7257 57.6348 20.4036 56.3094 21.3318L36.0082 35.5468H25.793L66.5477 7.01027ZM72.2234 35.5468H46.2236L57.6027 27.5792C60.4826 29.9239 64.4104 30.6165 67.918 29.398L72.2234 35.5468ZM98.1406 94.1405H9.85938V41.4062H98.1406V94.1405Z" fill="black"/>
<path d="M18.6484 80.4688C21.3408 80.4688 23.5312 82.6592 23.5312 85.3516C23.5312 86.9695 24.843 88.2812 26.4609 88.2812H81.5391C83.157 88.2812 84.4688 86.9695 84.4688 85.3516C84.4688 82.6592 86.6592 80.4688 89.3516 80.4688C90.9695 80.4688 92.2812 79.157 92.2812 77.5391V58.0078C92.2812 56.3898 90.9695 55.0781 89.3516 55.0781C86.6592 55.0781 84.4688 52.8877 84.4688 50.1953C84.4688 48.5773 83.157 47.2656 81.5391 47.2656H26.4609C24.843 47.2656 23.5312 48.5773 23.5312 50.1953C23.5312 52.8877 21.3408 55.0781 18.6484 55.0781C17.0305 55.0781 15.7188 56.3898 15.7188 58.0078V77.5391C15.7188 79.157 17.0305 80.4688 18.6484 80.4688ZM21.5781 60.5314C25.1506 59.5176 27.9707 56.6975 28.9846 53.125H79.0152C80.0291 56.6975 82.8492 59.5176 86.4217 60.5314V75.0152C82.8492 76.0291 80.0291 78.8492 79.0152 82.4217H28.9846C27.9707 78.8492 25.1506 76.0291 21.5781 75.0152V60.5314Z" fill="black"/>
<path d="M54 76.5625C58.8463 76.5625 62.7891 72.6197 62.7891 67.7734C62.7891 62.9271 58.8463 58.9844 54 58.9844C49.1537 58.9844 45.2109 62.9271 45.2109 67.7734C45.2109 72.6197 49.1537 76.5625 54 76.5625ZM54 64.8438C55.6154 64.8438 56.9297 66.158 56.9297 67.7734C56.9297 69.3889 55.6154 70.7031 54 70.7031C52.3846 70.7031 51.0703 69.3889 51.0703 67.7734C51.0703 66.158 52.3846 64.8438 54 64.8438Z" fill="black"/>
<path d="M73.5312 70.7031H77.4375C79.0555 70.7031 80.3672 69.3914 80.3672 67.7734C80.3672 66.1555 79.0555 64.8438 77.4375 64.8438H73.5312C71.9133 64.8438 70.6016 66.1555 70.6016 67.7734C70.6016 69.3914 71.9133 70.7031 73.5312 70.7031Z" fill="black"/>
<path d="M30.5625 70.7031H34.4688C36.0867 70.7031 37.3984 69.3914 37.3984 67.7734C37.3984 66.1555 36.0867 64.8438 34.4688 64.8438H30.5625C28.9445 64.8438 27.6328 66.1555 27.6328 67.7734C27.6328 69.3914 28.9445 70.7031 30.5625 70.7031Z" fill="black"/>
</g>
<defs>
<filter id="filter0_d_35_449" x="0" y="0" width="108" height="108" filterUnits="userSpaceOnUse" color-interpolation-filters="sRGB">
<feFlood flood-opacity="0" result="BackgroundImageFix"/>
<feColorMatrix in="SourceAlpha" type="matrix" values="0 0 0 0 0 0 0 0 0 0 0 0 0 0 0 0 0 0 127 0" result="hardAlpha"/>
<feOffset dy="4"/>
<feGaussianBlur stdDeviation="2"/>
<feComposite in2="hardAlpha" operator="out"/>
<feColorMatrix type="matrix" values="0 0 0 0 0 0 0 0 0 0 0 0 0 0 0 0 0 0 0.25 0"/>
<feBlend mode="normal" in2="BackgroundImageFix" result="effect1_dropShadow_35_449"/>
<feBlend mode="normal" in="SourceGraphic" in2="effect1_dropShadow_35_449" result="shape"/>
</filter>
<clipPath id="clip0_35_449">
<rect width="100" height="100" fill="white" transform="translate(4)"/>
</clipPath>
</defs>
</svg>
