<svg width="100" height="100" viewBox="0 0 100 100" fill="none" xmlns="http://www.w3.org/2000/svg">
<g clip-path="url(#clip0_35_457)">
<path d="M97.0703 6.05469H26.5625C24.9445 6.05469 23.6328 7.36641 23.6328 8.98438V47.2623C19.7123 47.9342 16.0971 49.9338 13.4482 52.9297H11.9141V50C11.9141 48.382 10.6023 47.0703 8.98438 47.0703H2.92969C1.31172 47.0703 0 48.382 0 50C0 51.618 1.31172 52.9297 2.92969 52.9297H6.05469V88.0859H2.92969C1.31172 88.0859 0 89.3977 0 91.0156C0 92.6336 1.31172 93.9453 2.92969 93.9453H8.98438C10.6023 93.9453 11.9141 92.6336 11.9141 91.0156V88.0859H14.3877C33.0719 93.9994 32.3658 93.9453 33.2031 93.9453H73.4375C79.4984 93.9453 83.7441 87.9262 81.7227 82.2266H97.0703C98.6883 82.2266 100 80.9148 100 79.2969V8.98438C100 7.36641 98.6883 6.05469 97.0703 6.05469ZM55.8594 11.9141H67.5781V26.5625H55.8594V11.9141ZM76.3672 85.1562C76.3672 86.7717 75.0529 88.0859 73.4375 88.0859H33.6592C14.9752 82.1725 15.6812 82.2266 14.8438 82.2266H11.9141V58.7891H14.8438C15.7742 58.7891 16.6494 58.3471 17.2016 57.5982C21.8416 51.3068 31.2797 51.3018 35.9232 57.5982C36.4756 58.3471 37.3508 58.7891 38.2812 58.7891H52.9297C54.5451 58.7891 55.8594 60.1033 55.8594 61.7188C55.8594 63.3342 54.5451 64.6484 52.9297 64.6484H35.3516C33.7336 64.6484 32.4219 65.9602 32.4219 67.5781C32.4219 75.6553 38.9932 82.2266 47.0703 82.2266H73.4375C75.0529 82.2266 76.3672 83.5408 76.3672 85.1562ZM94.1406 76.3672C92.3645 76.3672 49.4834 76.3672 47.0703 76.3672C43.2508 76.3672 39.9924 73.9182 38.7832 70.5078H52.9297C57.776 70.5078 61.7188 66.565 61.7188 61.7188C61.7188 56.8725 57.776 52.9297 52.9297 52.9297H39.6768C37.0281 49.9338 33.4127 47.9342 29.4922 47.2623V11.9141H50V29.4922C50 31.1102 51.3117 32.4219 52.9297 32.4219H70.5078C72.1258 32.4219 73.4375 31.1102 73.4375 29.4922V11.9141H94.1406V76.3672Z" fill="black"/>
</g>
<defs>
<clipPath id="clip0_35_457">
<rect width="100" height="100" fill="white"/>
</clipPath>
</defs>
</svg>
