<svg width="100" height="100" viewBox="0 0 100 100" fill="none" xmlns="http://www.w3.org/2000/svg">
<g clip-path="url(#clip0_35_440)">
<path d="M90.7941 14.1211H9.20586C4.06191 14.1211 0 18.2988 0 23.327V76.6732C0 81.817 4.17773 85.8789 9.20586 85.8789H90.7941C95.9381 85.8789 100 81.7012 100 76.673V23.327C100 18.1828 95.8223 14.1211 90.7941 14.1211ZM94.1406 76.673C94.1406 78.5199 92.6449 80.0195 90.7941 80.0195H9.20586C7.35898 80.0195 5.85938 78.5238 5.85938 76.673V23.327C5.85938 21.4801 7.35508 19.9805 9.20586 19.9805H90.7941C92.641 19.9805 94.1406 21.4762 94.1406 23.327V76.673Z" fill="black"/>
<path d="M39.2071 57.1685C40.9094 55.2624 41.9467 52.7505 41.9467 49.9999C41.9467 44.0587 37.1131 39.2251 31.1719 39.2251C25.2307 39.2251 20.3973 44.0587 20.3973 49.9999C20.3973 52.7505 21.4346 55.2624 23.1367 57.1683C18.6752 59.8882 15.6901 64.8005 15.6901 70.397C15.6901 72.0149 17.0018 73.3267 18.6198 73.3267H43.7239C45.3418 73.3267 46.6535 72.0149 46.6535 70.397C46.6535 64.8005 43.6684 59.8884 39.2071 57.1685ZM31.1719 45.0845C33.8823 45.0845 36.0873 47.2896 36.0873 49.9999C36.0873 52.7103 33.8823 54.9153 31.1719 54.9153C28.4615 54.9153 26.2567 52.7103 26.2567 49.9999C26.2567 47.2896 28.4615 45.0845 31.1719 45.0845ZM22.0053 67.4675C23.2475 63.5897 26.8871 60.7747 31.1719 60.7747C35.4567 60.7747 39.0961 63.5896 40.3385 67.4675H22.0053Z" fill="black"/>
<path d="M81.3803 42.3633H59.4141C57.7961 42.3633 56.4844 43.675 56.4844 45.293C56.4844 46.9109 57.7961 48.2227 59.4141 48.2227H81.3803C82.9982 48.2227 84.31 46.9109 84.31 45.293C84.31 43.675 82.9982 42.3633 81.3803 42.3633Z" fill="black"/>
<path d="M81.3803 26.6729H18.6198C17.0018 26.6729 15.6901 27.9846 15.6901 29.6025C15.6901 31.2205 17.0018 32.5322 18.6198 32.5322H81.3803C82.9983 32.5322 84.31 31.2205 84.31 29.6025C84.31 27.9846 82.9983 26.6729 81.3803 26.6729Z" fill="black"/>
<path d="M81.3803 54.9155H59.4141C57.7961 54.9155 56.4844 56.2272 56.4844 57.8452C56.4844 59.4632 57.7961 60.7749 59.4141 60.7749H81.3803C82.9982 60.7749 84.31 59.4632 84.31 57.8452C84.31 56.2272 82.9982 54.9155 81.3803 54.9155Z" fill="black"/>
<path d="M75.1041 67.4678H59.4141C57.7961 67.4678 56.4844 68.7795 56.4844 70.3975C56.4844 72.0154 57.7961 73.3271 59.4141 73.3271H75.1041C76.7221 73.3271 78.0338 72.0154 78.0338 70.3975C78.0338 68.7795 76.7221 67.4678 75.1041 67.4678Z" fill="black"/>
</g>
<defs>
<clipPath id="clip0_35_440">
<rect width="100" height="100" fill="white"/>
</clipPath>
</defs>
</svg>
