<svg width="100" height="100" viewBox="0 0 100 100" fill="none" xmlns="http://www.w3.org/2000/svg">
<g clip-path="url(#clip0_35_436)">
<path d="M14.6484 64.6487H56.0547C57.6729 64.6487 58.9844 63.3372 58.9844 61.719V58.1866C66.2903 56.2624 72.8065 52.3279 77.9457 46.715C78.6636 45.9307 78.9001 44.8191 78.5637 43.8097L77.6978 41.2112H80.5077C81.5559 41.2112 82.5241 40.6512 83.0467 39.7425C86.4716 33.7893 88.2812 27.0052 88.2812 20.1235V14.844C88.2812 13.9666 87.8876 13.135 87.2093 12.578C86.5303 12.0219 85.6384 11.7991 84.7771 11.9707C66.407 15.6451 53.125 31.8011 53.125 50.5801V58.7893H14.6484C13.0302 58.7893 11.7188 60.1008 11.7188 61.719C11.7188 63.3372 13.0302 64.6487 14.6484 64.6487ZM58.9844 50.5801C58.9844 35.8774 68.6478 22.9655 82.4219 18.6175V20.1227C82.4219 25.4221 81.1615 30.6528 78.7643 35.3518H73.6328C72.6913 35.3518 71.8063 35.8042 71.2563 36.5679C70.7054 37.3324 70.5559 38.3143 70.8534 39.2077L72.4457 43.9829C68.6424 47.7434 64.0594 50.4999 58.9844 52.0899V50.5801Z" fill="black"/>
<path d="M91.2109 0H8.78906C3.93219 0 0 4.12216 0 8.98438V79.2969C0 84.1431 3.94287 88.0859 8.78906 88.0859H39.4348L36.4571 94.1406H26.5625C24.9443 94.1406 23.6328 95.4521 23.6328 97.0703C23.6328 98.6885 24.9443 100 26.5625 100H73.6328C75.251 100 76.5625 98.6885 76.5625 97.0703C76.5625 95.4521 75.251 94.1406 73.6328 94.1406H63.7383L60.7605 88.0859H91.2109C96.0571 88.0859 100 84.1431 100 79.2969V8.98438C100 4.12903 96.0762 0 91.2109 0ZM8.78906 5.85938H91.2109C92.7719 5.85938 94.1406 7.31964 94.1406 8.98438V70.5078H5.85938V8.98438C5.85938 7.31964 7.22809 5.85938 8.78906 5.85938ZM57.2083 94.1406H42.9871L45.9648 88.0859H54.2305L57.2083 94.1406ZM91.2109 82.2266H8.78906C7.17392 82.2266 5.85938 80.912 5.85938 79.2969V76.3672H94.1406V79.2969C94.1406 80.912 92.8261 82.2266 91.2109 82.2266Z" fill="black"/>
</g>
<defs>
<clipPath id="clip0_35_436">
<rect width="100" height="100" fill="white"/>
</clipPath>
</defs>
</svg>
