<svg width="100" height="100" viewBox="0 0 100 100" fill="none" xmlns="http://www.w3.org/2000/svg">
<path d="M83.1953 12.1094H80.2656V8.78906C80.2656 3.94277 76.3229 0 71.4766 0H30.4609C29.6838 0 28.9389 0.308789 28.3895 0.858203L8.8582 20.3895C8.30879 20.9389 8 21.6838 8 22.4609V79.4922C8 84.3385 11.9428 88.2812 16.7891 88.2812H19.7188V91.2109C19.7188 96.0572 23.6615 100 28.5078 100H83.1953C88.0416 100 91.9844 96.0572 91.9844 91.2109V20.8984C91.9844 16.0521 88.0416 12.1094 83.1953 12.1094ZM27.5312 10.0025V19.5312H18.0025L27.5312 10.0025ZM16.7891 82.4219C15.1736 82.4219 13.8594 81.1076 13.8594 79.4922V25.3906H30.4609C32.0789 25.3906 33.3906 24.0789 33.3906 22.4609V5.85938H71.4766C73.092 5.85938 74.4062 7.17363 74.4062 8.78906V79.4922C74.4062 81.1076 73.092 82.4219 71.4766 82.4219H16.7891ZM86.125 91.2109C86.125 92.8264 84.8107 94.1406 83.1953 94.1406H28.5078C26.8924 94.1406 25.5781 92.8264 25.5781 91.2109V88.2812H71.4766C76.3229 88.2812 80.2656 84.3385 80.2656 79.4922V17.9688H83.1953C84.8107 17.9688 86.125 19.283 86.125 20.8984V91.2109Z" fill="black"/>
<path d="M62.9828 24.0732C64.0244 22.6289 64.6406 20.8582 64.6406 18.9453C64.6406 14.099 60.6979 10.1562 55.8516 10.1562C51.0053 10.1562 47.0625 14.099 47.0625 18.9453C47.0625 20.8582 47.6787 22.6289 48.7203 24.0732C45.3645 26.3604 43.1562 30.2119 43.1562 34.5703V38.4766C43.1562 40.0945 44.468 41.4062 46.0859 41.4062H65.6172C67.2352 41.4062 68.5469 40.0945 68.5469 38.4766V34.5703C68.5469 30.2119 66.3387 26.3604 62.9828 24.0732ZM55.8516 16.0156C57.467 16.0156 58.7812 17.3299 58.7812 18.9453C58.7812 20.5607 57.467 21.875 55.8516 21.875C54.2361 21.875 52.9219 20.5607 52.9219 18.9453C52.9219 17.3299 54.2361 16.0156 55.8516 16.0156ZM62.6875 35.5469H49.0156V34.5703C49.0156 30.801 52.0822 27.7344 55.8516 27.7344C59.6209 27.7344 62.6875 30.801 62.6875 34.5703V35.5469Z" fill="black"/>
<path d="M22.6484 41.4062H36.3203C37.9383 41.4062 39.25 40.0945 39.25 38.4766C39.25 36.8586 37.9383 35.5469 36.3203 35.5469H22.6484C21.0305 35.5469 19.7188 36.8586 19.7188 38.4766C19.7188 40.0945 21.0305 41.4062 22.6484 41.4062Z" fill="black"/>
<path d="M65.6172 47.2656H22.6484C21.0305 47.2656 19.7188 48.5773 19.7188 50.1953C19.7188 51.8133 21.0305 53.125 22.6484 53.125H65.6172C67.2352 53.125 68.5469 51.8133 68.5469 50.1953C68.5469 48.5773 67.2352 47.2656 65.6172 47.2656Z" fill="black"/>
<path d="M65.6172 58.9844H22.6484C21.0305 58.9844 19.7188 60.2961 19.7188 61.9141C19.7188 63.532 21.0305 64.8438 22.6484 64.8438H65.6172C67.2352 64.8438 68.5469 63.532 68.5469 61.9141C68.5469 60.2961 67.2352 58.9844 65.6172 58.9844Z" fill="black"/>
<path d="M65.6172 70.7031H22.6484C21.0305 70.7031 19.7188 72.0148 19.7188 73.6328C19.7188 75.2508 21.0305 76.5625 22.6484 76.5625H65.6172C67.2352 76.5625 68.5469 75.2508 68.5469 73.6328C68.5469 72.0148 67.2352 70.7031 65.6172 70.7031Z" fill="black"/>
</svg>
