<svg width="60" height="60" viewBox="0 0 60 60" fill="none" xmlns="http://www.w3.org/2000/svg">
<g clip-path="url(#clip0_35_466)">
<path d="M47.2187 27.2931V18.3315C47.2187 8.22323 38.995 0 28.8872 0H22.6085C12.5002 0 4.27699 8.22323 4.27699 18.3315V27.2931C1.75243 28.4819 0.00012207 31.0495 0.00012207 34.0199V37.7979C0.00012207 41.8957 3.334 45.2296 7.43189 45.2296H12.6591C13.9376 45.2296 14.9781 44.1891 14.9781 42.9106V28.9067C14.9781 27.9972 14.4503 27.2107 13.6863 26.8308V18.3315C13.6863 13.4115 17.6885 9.40929 22.6085 9.40929H28.8872C33.8068 9.40929 37.8094 13.4115 37.8094 18.3315V26.8308C37.0454 27.2107 36.5176 27.9972 36.5176 28.9067V42.9106C36.5176 44.1891 37.5577 45.2296 38.8362 45.2296H40.8984V49.8933C40.8984 52.037 39.1543 53.7815 37.0102 53.7815H32.2266V52.937C32.2266 51.9477 31.4246 51.1457 30.4349 51.1457H23.7923C21.883 51.1457 20.3293 52.6994 20.3293 54.6087V56.5368C20.3293 58.4466 21.883 60.0002 23.7923 60.0002H30.4349C31.4246 60.0002 32.2266 59.1982 32.2266 58.2085V57.3644H37.0102C41.1296 57.3644 44.4808 54.0127 44.4808 49.8933V45.2173C48.3855 44.9998 51.4956 41.7557 51.4956 37.7979V34.0199C51.4951 31.0495 49.7433 28.4819 47.2187 27.2931ZM28.6437 56.4173H23.9118V54.7282H28.6437V56.4173ZM11.3952 41.6472H7.43189C5.3097 41.6472 3.58257 39.92 3.58257 37.7979V34.0199C3.58257 31.8973 5.3097 30.1706 7.43189 30.1706H11.3952V41.6472ZM28.8872 5.82685H22.6085C15.7133 5.82685 10.1038 11.4363 10.1038 18.3315V26.5882H7.85944V18.3315C7.85944 10.1989 14.4759 3.58244 22.6085 3.58244H28.8872C37.0198 3.58244 43.6363 10.1989 43.6363 18.3315V26.5882H41.3919V18.3315C41.3919 11.4363 35.7824 5.82685 28.8872 5.82685ZM47.9127 37.7979C47.9127 39.92 46.186 41.6467 44.0638 41.6467H40.1001V30.1706H44.0638C46.186 30.1706 47.9127 31.8973 47.9127 34.0195V37.7979Z" fill="white"/>
</g>
<defs>
<clipPath id="clip0_35_466">
<rect width="60" height="60" fill="white"/>
</clipPath>
</defs>
</svg>
