<svg width="60" height="60" viewBox="0 0 60 60" fill="none" xmlns="http://www.w3.org/2000/svg">
<g clip-path="url(#clip0_35_461)">
<path d="M58.2422 28.2422H54.3516V22.4687C54.3516 18.378 51.042 15.0625 46.9453 15.0625H44.9375V5.5234C44.9375 2.47781 42.4596 0 39.414 0H35.6484H16.8203H13.0547C10.0287 0 7.53129 2.44547 7.53129 5.5234V18.828H5.52352C2.49305 18.8282 0 21.2774 0 24.3516C0 26.3476 1.06441 28.0996 2.65523 29.0701C2.16527 29.8945 1.88273 30.8562 1.88273 31.8829C1.88273 33.8775 2.94574 35.6284 4.53469 36.5994C4.03348 37.4423 3.76559 38.4074 3.76559 39.4141C3.76559 41.531 4.92551 43.2227 6.41941 44.135C5.93027 44.959 5.64832 45.9197 5.64832 46.9454C5.64832 48.5972 6.37816 50.081 7.53105 51.094V54.4766C7.53129 57.5222 10.0091 60 13.0547 60H39.414C40.8904 60 42.2775 59.4251 43.3186 58.3826C44.3625 57.3398 44.9374 55.9527 44.9374 54.4765V52.4687H46.9453C50.4238 52.4687 53.3496 50.0584 54.1409 46.8203H58.2422C59.213 46.8203 60 46.0332 60 45.0625V30C60 29.0292 59.213 28.2422 58.2422 28.2422ZM18.5781 3.51562H33.8906V5.5234C33.8906 6.61758 33.006 7.53117 31.8827 7.53117H20.586C19.4895 7.53117 18.5781 6.64441 18.5781 5.5234V3.51562ZM3.51562 24.3516C3.51562 23.2573 4.40062 22.3438 5.52352 22.3438H7.53129V26.3595H5.52352C4.41645 26.3593 3.51562 25.4586 3.51562 24.3516ZM5.39836 31.8829C5.39836 30.7757 6.29918 29.875 7.40625 29.875H13.0547C14.1618 29.875 15.0625 30.7757 15.0625 31.8829C15.0625 32.9899 14.1618 33.8906 13.0547 33.8906H7.40625C6.29918 33.8906 5.39836 32.9899 5.39836 31.8829ZM7.28133 39.414C7.28133 38.3196 8.16621 37.4062 9.2891 37.4062H13.0547C14.1513 37.4062 15.0625 38.293 15.0625 39.414C15.0625 40.5107 14.1759 41.4218 13.0547 41.4218H9.2891C8.19246 41.4219 7.28133 40.5352 7.28133 39.414ZM9.16406 46.9453C9.16406 45.8382 10.0648 44.9375 11.1718 44.9375C12.2789 44.9375 13.1797 45.8382 13.1797 46.9453C13.1797 48.0524 12.2789 48.9531 11.1718 48.9531C10.0648 48.9531 9.16406 48.0524 9.16406 46.9453ZM41.4219 54.4766C41.4219 55.5708 40.5373 56.4844 39.414 56.4844H13.0547C11.9476 56.4844 11.0468 55.5837 11.0468 54.4766V52.4657C11.0885 52.4666 11.1299 52.4688 11.1717 52.4688C14.2173 52.4688 16.6952 49.991 16.6952 46.9454C16.6952 45.9198 16.4133 44.9592 15.9243 44.1353C16.999 43.479 18.5781 41.9331 18.5781 39.4141C18.5781 38.0014 18.0504 36.6711 17.0917 35.647C18.0128 34.6598 18.5781 33.3364 18.5781 31.883C18.5781 28.8373 16.1003 26.3595 13.0547 26.3595H11.0469V20.586V5.5234C11.0469 4.42957 11.9312 3.51562 13.0547 3.51562H15.0625V5.5234C15.0625 8.56043 17.518 11.0468 20.586 11.0468H31.8827C34.9198 11.0468 37.4062 8.59148 37.4062 5.5234V3.51562H39.414C40.5211 3.51562 41.4219 4.41633 41.4219 5.5234V15.0625H31.8829C30.9121 15.0625 30.125 15.8495 30.125 16.8203C30.125 22.9805 35.1368 27.9921 41.297 27.9921H41.4219V54.4766ZM56.4844 43.3046H52.5938C51.623 43.3046 50.8359 44.0917 50.8359 45.0625C50.8359 47.2078 49.0905 48.9531 46.9453 48.9531H44.9375V26.2344C44.9375 25.2636 44.1505 24.4766 43.1797 24.4766H41.2969C37.68 24.4766 34.6406 21.9553 33.8441 18.5782H46.9453C49.0958 18.5782 50.8359 20.3174 50.8359 22.4688V30C50.8359 30.9708 51.623 31.7578 52.5938 31.7578H56.4844V43.3046Z" fill="white"/>
<path d="M30 48.9531H22.4687C21.4979 48.9531 20.7109 49.7402 20.7109 50.7109C20.7109 51.6817 21.4979 52.4688 22.4687 52.4688H30C30.9708 52.4688 31.7578 51.6817 31.7578 50.7109C31.7578 49.7402 30.9708 48.9531 30 48.9531Z" fill="white"/>
</g>
<defs>
<clipPath id="clip0_35_461">
<rect width="60" height="60" fill="white"/>
</clipPath>
</defs>
</svg>
