<svg width="60" height="60" viewBox="0 0 60 60" fill="none" xmlns="http://www.w3.org/2000/svg">
<g clip-path="url(#clip0_35_469)">
<path d="M58.2422 21.3281H53.8092L39.4001 0.749716C38.8432 -0.0455188 37.7471 -0.238761 36.9519 0.317997L6.94652 21.3281H1.75781C0.787031 21.3281 0 22.1151 0 23.0859V58.2421C0 59.2129 0.787031 60 1.75781 60H58.2422C59.213 60 60 59.2129 60 58.2421V23.0859C60 22.1151 59.213 21.3281 58.2422 21.3281ZM37.5286 4.20616L49.5176 21.3281H45.2258L40.3621 14.3819C39.8052 13.5867 38.7091 13.3934 37.9139 13.9502C36.5906 14.8768 34.7602 14.5541 33.8337 13.2307C33.2768 12.4354 32.1809 12.2422 31.3856 12.7991L19.2049 21.3281H13.0758L37.5286 4.20616ZM40.9341 21.3281H25.3342L32.1616 16.5475C33.8896 17.9544 36.2462 18.3699 38.3508 17.6388L40.9341 21.3281ZM56.4844 56.4843H3.51562V24.8437H56.4844V56.4843Z" fill="white"/>
<path d="M8.78906 48.2812C10.4045 48.2812 11.7188 49.5955 11.7188 51.2109C11.7188 52.1817 12.5058 52.9688 13.4766 52.9688H46.5234C47.4942 52.9688 48.2812 52.1817 48.2812 51.2109C48.2812 49.5955 49.5955 48.2812 51.2109 48.2812C52.1817 48.2812 52.9688 47.4942 52.9688 46.5234V34.8047C52.9688 33.8339 52.1817 33.0469 51.2109 33.0469C49.5955 33.0469 48.2812 31.7326 48.2812 30.1172C48.2812 29.1464 47.4942 28.3594 46.5234 28.3594H13.4766C12.5058 28.3594 11.7188 29.1464 11.7188 30.1172C11.7188 31.7326 10.4045 33.0469 8.78906 33.0469C7.81828 33.0469 7.03125 33.8339 7.03125 34.8047V46.5234C7.03125 47.4942 7.81828 48.2812 8.78906 48.2812ZM10.5469 36.3189C12.6904 35.7105 14.3824 34.0185 14.9907 31.875H45.0091C45.6175 34.0185 47.3095 35.7105 49.453 36.3189V45.0091C47.3095 45.6175 45.6175 47.3095 45.0091 49.453H14.9907C14.3824 47.3095 12.6904 45.6175 10.5469 45.0091V36.3189Z" fill="white"/>
<path d="M30 45.9375C32.9078 45.9375 35.2734 43.5718 35.2734 40.6641C35.2734 37.7563 32.9078 35.3906 30 35.3906C27.0922 35.3906 24.7266 37.7563 24.7266 40.6641C24.7266 43.5718 27.0922 45.9375 30 45.9375ZM30 38.9062C30.9693 38.9062 31.7578 39.6948 31.7578 40.6641C31.7578 41.6333 30.9693 42.4219 30 42.4219C29.0307 42.4219 28.2422 41.6333 28.2422 40.6641C28.2422 39.6948 29.0307 38.9062 30 38.9062Z" fill="white"/>
<path d="M41.7188 42.4219H44.0625C45.0333 42.4219 45.8203 41.6348 45.8203 40.6641C45.8203 39.6933 45.0333 38.9062 44.0625 38.9062H41.7188C40.748 38.9062 39.9609 39.6933 39.9609 40.6641C39.9609 41.6348 40.748 42.4219 41.7188 42.4219Z" fill="white"/>
<path d="M15.9375 42.4219H18.2812C19.252 42.4219 20.0391 41.6348 20.0391 40.6641C20.0391 39.6933 19.252 38.9062 18.2812 38.9062H15.9375C14.9667 38.9062 14.1797 39.6933 14.1797 40.6641C14.1797 41.6348 14.9667 42.4219 15.9375 42.4219Z" fill="white"/>
</g>
<defs>
<clipPath id="clip0_35_469">
<rect width="60" height="60" fill="white"/>
</clipPath>
</defs>
</svg>
