<svg width="60" height="60" viewBox="0 0 60 60" fill="none" xmlns="http://www.w3.org/2000/svg">
<g clip-path="url(#clip0_35_477)">
<path d="M58.2422 3.63281H15.9375C14.9667 3.63281 14.1797 4.41984 14.1797 5.39062V28.3574C11.8274 28.7605 9.65824 29.9603 8.06895 31.7578H7.14844V30C7.14844 29.0292 6.36141 28.2422 5.39062 28.2422H1.75781C0.787031 28.2422 0 29.0292 0 30C0 30.9708 0.787031 31.7578 1.75781 31.7578H3.63281V52.8516H1.75781C0.787031 52.8516 0 53.6386 0 54.6094C0 55.5802 0.787031 56.3672 1.75781 56.3672H5.39062C6.36141 56.3672 7.14844 55.5802 7.14844 54.6094V52.8516H8.63262C19.8431 56.3996 19.4195 56.3672 19.9219 56.3672H44.0625C47.6991 56.3672 50.2465 52.7557 49.0336 49.3359H58.2422C59.213 49.3359 60 48.5489 60 47.5781V5.39062C60 4.41984 59.213 3.63281 58.2422 3.63281ZM33.5156 7.14844H40.5469V15.9375H33.5156V7.14844ZM45.8203 51.0938C45.8203 52.063 45.0318 52.8516 44.0625 52.8516H20.1955C8.98512 49.3035 9.40875 49.3359 8.90625 49.3359H7.14844V35.2734H8.90625C9.46453 35.2734 9.98965 35.0082 10.3209 34.5589C13.105 30.7841 18.7678 30.7811 21.5539 34.5589C21.8854 35.0082 22.4105 35.2734 22.9688 35.2734H31.7578C32.7271 35.2734 33.5156 36.062 33.5156 37.0312C33.5156 38.0005 32.7271 38.7891 31.7578 38.7891H21.2109C20.2402 38.7891 19.4531 39.5761 19.4531 40.5469C19.4531 45.3932 23.3959 49.3359 28.2422 49.3359H44.0625C45.0318 49.3359 45.8203 50.1245 45.8203 51.0938ZM56.4844 45.8203C55.4187 45.8203 29.69 45.8203 28.2422 45.8203C25.9505 45.8203 23.9954 44.3509 23.2699 42.3047H31.7578C34.6656 42.3047 37.0312 39.939 37.0312 37.0312C37.0312 34.1235 34.6656 31.7578 31.7578 31.7578H23.8061C22.2169 29.9603 20.0476 28.7605 17.6953 28.3574V7.14844H30V17.6953C30 18.6661 30.787 19.4531 31.7578 19.4531H42.3047C43.2755 19.4531 44.0625 18.6661 44.0625 17.6953V7.14844H56.4844V45.8203Z" fill="white"/>
</g>
<defs>
<clipPath id="clip0_35_477">
<rect width="60" height="60" fill="white"/>
</clipPath>
</defs>
</svg>
